<?xml version="1.0" encoding="utf-8"?>
<!-- Generator: Adobe Illustrator 22.0.0, SVG Export Plug-In . SVG Version: 6.00 Build 0)  -->
<svg version="1.1" id="Layer_1" xmlns="http://www.w3.org/2000/svg" xmlns:xlink="http://www.w3.org/1999/xlink" x="0px" y="0px"
	 viewBox="0 0 850.4 595.3" style="enable-background:new 0 0 850.4 595.3;" xml:space="preserve">
<style type="text/css">
	.st0{fill:#FFFFFF;}
	.st1{fill:#231F20;stroke:#231F20;stroke-width:10;}
	.st2{fill:#FFFFFF;stroke:#231F20;stroke-width:10;}
</style>
<g>
	<path class="st0" d="M696.9,595.3H153.4c-38.7,0-70-31.4-70-70V70c0-38.7,31.4-70,70-70h543.5c38.7,0,70,31.4,70,70v455.2
		C767,563.9,735.6,595.3,696.9,595.3z"/>
	<g>
		<path class="st1" d="M144.2,124.2c0,0,15-11.8,14.4-22.3c-4.9-10.4-1.1-11.1-6-11.9c0.4-5.6,7.3-14.5,3.7-22.3
			c5.8,3.5,8.8,12.6,12.7,11.1c3.9-1.5,5.6-11.5,2.8-28c4.3,3,6.9,11.7,10.1,11.7c3.2,0,7.3-0.2,6.2-19.5c3.2,2,5.4,11.5,8.8,15.2
			c3.4,3.7,7.7,2.2,9.7-2c1.9-4.1,5.7-13,6.9-14.1c1.9-1.8,5.4-2,5.6-0.4c0.2,1.5-4.3,14.7,0.6,16.3c4.9,1.5,9.5-2.4,12.5-8.7
			c4.1-4.3,5.2-5,6.9,0.7c1.7,5.6,2.6,14.5,0.6,19.3c4.1,0.7,9.7-1.1,12-9.8c4.5,1.5,8.8,25.2-3.7,31.2c-7.8,3.8-15.5,3.7-20,3.7
			c-4.5,0-5.6,3.3-4.5,5.9c1.1,2.6,2.1,8.7-4.5,11.1c-6.7,2.4-9.7-0.7-16.3,3c-6.7,3.7-7.7,7.4-10.9,8.7c-3.2,1.3-9.4,16-16.1,4.2
			c-2.3-4.1-5.2-6.6-11.6-6.2C157.5,121.4,148.9,120.9,144.2,124.2z"/>
		<path class="st0" d="M170.2,82.8c0,0-11.4,4.8-7.5,8.9c3.9,4.1,4.1,3.5,5.6,3c1.5-0.4,3-2.2,3.2-5.2
			C171.7,86.5,171.5,82.8,170.2,82.8z"/>
		<path class="st0" d="M185.9,66.7c0,0-3.7,2.8-6.7,9.3c-3,6.5-5.2,7.6-3.2,10.6c1.9,3,3.2,3.3,5.2,2.2c1.9-1.1,6.2-4.1,6.2-7.2
			c0-3,0.4-11.3,0-12.6C186.9,67.8,187.4,65.6,185.9,66.7z"/>
		<path class="st0" d="M199.2,67.2c0,0-7.5-3.7-6.7,0.4c0.9,4.1-1.3,5.2,1.7,7.8c3,2.6,2.4,2.2,3.2,4.3c0.9,2.2,1.7,3,3.2,3
			s4-3.9,3.1-8.3C202.9,70.2,202.6,68.7,199.2,67.2z"/>
		<path class="st0" d="M214.8,62.4c0,0-0.2,0-0.7,0.1c-0.9,0.3-2.8,1.1-4.7,3.3c-2.8,3.3-3.2,4.8-2.6,7.8c0.6,3,0.4,4.6,3.4,4.8
			c3,0.2,3.8-1.6,5.7-4.8c3.4-5.6,0-11.4-0.8-11.2"/>
		<path class="st0" d="M229.7,65.6c0,0-1.3-0.2-2.6,6.3c-1.3,6.5-2.1,8-3.4,6.3c-1.3-1.7-2.3-4.5-3.4-1c-1.1,3.5-0.7,3.8,0.3,4.9
			c1.1,1.1,2.2,3.9,5.2,3.9c3,0,4.7-0.9,6.4-4.1c1.7-3.3,2.8-4.8,2.1-7.2c-0.6-2.4-0.4-4.1-1.7-6.1
			C231.4,66.7,230.7,64.8,229.7,65.6z"/>
		<path class="st0" d="M248.1,70.8c0,0-4.9,4.6-7.5,7.8c-2.6,3.3-6.2,4.1-7.3,6.7c-1.1,2.6,2.8,6.3,7.3,4.3c4.5-2,6.2-2.6,7.9-6.5
			c1.7-3.9,3-5.9,2.8-9.5C251.2,70,250.3,68.5,248.1,70.8z"/>
		<path class="st0" d="M183,94.9c0,0-6.4,1.7-10.5,4.6c-4.1,2.8-9.2,0.9-7.5,6.1c1.7,5.2-0.1,7,3.6,9.2c3.7,2.2,6.2,2.3,9.3,6.2
			c2.3,2.8,1,1.7,4.8,2c3.7,0.3,2.5-3.3,6.1-4c2.8-0.5,3.9-6.3,1.3-6.5c-2.6-0.2-9.9,1.1-10.3-2c-0.4-3,0.4-6.1,2.1-7.8
			c1.7-1.7,3.4-6.1,2.8-6.7C184.1,95.4,183,94.9,183,94.9z"/>
		<path class="st0" d="M203.9,90.2c0,0-7.7-3.9-9.2,4.1c1.1,3,4.1,5.6,6.2,6.5c2.1,0.9,1.5,0.7,3.9,2.2c2.4,1.5,6.7,2.8,7.5,1.1
			c0.9-1.7,2.6-6.9-3.9-9.8C203.5,89.5,203.9,90.2,203.9,90.2z"/>
		<path class="st2" d="M167.6,124.1c0,0-3.4,1.5-4.5,6.3c-1.1,4.8-5.5,7.8-7.2,11.7c-1.7,3.9-2.3,14.5,1.8,21.5
			c4.1,6.9,4.5,14.5,7.5,13.4c3-1.1,4.8-0.9,11.8-13.7c7-12.8,5.6-18.3,4.1-25.2c-1.5-6.6-4.1-10.2-5.6-11.1
			S168.7,123.4,167.6,124.1z"/>
		<path class="st2" d="M259.6,371.5c0,0-6.8,15.8,15.3,46.7c18.5,32.5,19.7,35.3,16.5,51.6c-3.2,16.2-1.6,51.2-14.1,57.3
			c-11.6,5.7-22.7-1.2-34.3,2.1c-7,2-12.2,6.7-8.3,7.6c5.3,1.3-12.3,8-11.9,12.5s27.8-9.9,34.8-3.1c5,4.8,3.6,8.2,7.2,8.5
			c1.8,0.2,4-7.3,10.5-7.3s10.1,4.5,14.5,3.7c4.4-0.8,7.2-1.6,4-5.3c-3.2-3.7-5.2-9.7-3.6-15.8c1.6-6.1,0.8-12.2,6-11
			c5.2,1.2,3.2,3.7,8,4.9c4.8,1.2,8.9-2,7.2-4.9s-22.9-9.3-8.9-45.1c8-21.1,21.3-50.4,21.3-50.4S280.5,377.2,259.6,371.5z"/>
		<path class="st2" d="M346.9,445.4c0,0,37.8,59.7-1.2,105.2c9.1,4.3,8-7.7,15.7-4.5c7.6,3.2,8.4,3.7,13.3,7.7
			c4.8,4.1,3.2-6.5,10.1-6.9c6.8-0.4,7.6,4.1,12.5,5.7c4.8,1.6,5.2-4.9-0.4-9.3s-12.1-0.8-19.7-25.6c-7.6-24.8-11.3-75.5-9.3-83.3
			C352.9,440.9,346.9,445.4,346.9,445.4z"/>
		<path class="st2" d="M225.4,105.1c0,0,24.5,6.1,36.2,23.1c11.7,17.1,18.9,23.1,35,52.4c16.1,29.2,26.6,45.4,55.9,52.9
			c28.6,7.3,66.8,2.7,95-17.2s70-53.6,78.9-57.7c8.9-4.1,52.8-31.5,96.6-18.7c36.5,10.7,63.6,29.6,78.1,88.1
			c5.6,36.5,10.5,73.1-6.4,117c-12.9,25.2-18.5,34.1-18.9,29.6c0,0-2.8-10.6-4.8-7.3c-2,3.2-14.9,69-47.9,90.6
			c4.8-17.1,67.2-136.9,11.3-211.2c1.3,14.2,4.5,22.2,4.5,28.7c0,2.6-1.1,116.7-22.9,127.4c0-12.4-4.9-12.4-9.3-5.5
			c-4.4,6.9-14.1,25.9-38.6,31.3c2.8-14.2,36.8-55.5,22.4-100.6c-8.5,13.9-18.1,3.2-16.7,40.1c-14.9,24-14.2,43.3-59.1,64.2
			c-7.2-5.3,4.7-15,10.4-21.9c5.6-6.9-11.6-2-15.6-0.4c-4,1.6,7.2-12.6,1.2-11.8c-6,0.8-22.1,6.5-24.5,11
			c-6.4-1.2,3.8-14.9,4.3-19.2c-17.6,0.5-11.9-4.3-11.9-16.5c-7.6,6.9-12.4,17.2-15.2,16c-2.8-1.2,3.2-22.1-2.1-21.3
			c-5.2,0.8-10.6,18.2-10.2,25.6c-3.6,4.5-5.9-0.8-9.1-8.5c-3.2-7.7-4-6.9-6-1.6c-2,5.3-32.3,34.4-27,25.2c16-27.4-10.5-3-11.7-0.5
			c4.8-18.3-4.4-11.2-12.4-3.9c-4.8-3.2-2.4-19.5,2.4-27.2c0-8.1-5.6-12.2-15.3,9.3c-5.6-6.5-12.5-11.8-12.5-4.1
			c0,7.7-2,12.2,7.2,34.1c3.6,24.8-1.2,29.6-5.2,33.7c-4,4.1-8.4-0.4-17.3-8.5c-8.9-8.1-60.4-59.3-74-67
			c-13.7-7.7-55.5-14.2-75.6-42.6c-20.1-28.4-44.7-66.6-22.5-130.8c2-11.8,8.9-21.5,8.9-33.7C183.2,148.4,179,103.6,225.4,105.1z"/>
		<path class="st2" d="M194,116.8c0,0-13.2,8.7-10.1,21.2c2.9,11.7-1.7,8.3,3.4,13.3c6.9,2.4,9.3-6.1,12.7-10.7
			c3.4-4.6,6-6.5,9.5-11.1c3.4-4.6,3.7-8.2,1.7-12.1c-1.9-3.9-7.3-5.4-10.1-4.6C198.3,113.8,194,116.8,194,116.8z"/>
	</g>
</g>
</svg>
