<?xml version="1.0" encoding="UTF-8" standalone="no"?>
<!-- Created with Inkscape (http://www.inkscape.org/) -->

<svg
   version="1.1"
   id="svg1"
   width="675.41333"
   height="455.77332"
   viewBox="0 0 675.41333 455.77332"
   sodipodi:docname="wpsa_logotekst.eps"
   xmlns:inkscape="http://www.inkscape.org/namespaces/inkscape"
   xmlns:sodipodi="http://sodipodi.sourceforge.net/DTD/sodipodi-0.dtd"
   xmlns="http://www.w3.org/2000/svg"
   xmlns:svg="http://www.w3.org/2000/svg">
  <defs
     id="defs1" />
  <sodipodi:namedview
     id="namedview1"
     pagecolor="#ffffff"
     bordercolor="#000000"
     borderopacity="0.25"
     inkscape:showpageshadow="2"
     inkscape:pageopacity="0.0"
     inkscape:pagecheckerboard="0"
     inkscape:deskcolor="#d1d1d1">
    <inkscape:page
       x="0"
       y="0"
       inkscape:label="1"
       id="page1"
       width="675.41333"
       height="455.77332"
       margin="0"
       bleed="0" />
  </sodipodi:namedview>
  <g
     id="g1"
     inkscape:groupmode="layer"
     inkscape:label="1">
    <path
       id="path1"
       d="m 594.203,1459.11 -67.625,126.81 -91.301,-5.08 -65.937,-121.73 228.242,-5.07"
       style="fill:#918f90;fill-opacity:1;fill-rule:nonzero;stroke:none"
       transform="matrix(0.13333333,0,0,-0.13333333,0,455.77333)" />
    <path
       id="path2"
       d="m 4593.73,1576.41 c 0,0 -65.73,-107.29 -85.95,-114.59 -20.23,-7.31 236.49,-0.57 236.49,-0.57 0,0 -60.66,79.77 -62.91,114.61 -33.14,-1.13 -87.63,0.55 -87.63,0.55"
       style="fill:#918f90;fill-opacity:1;fill-rule:nonzero;stroke:none"
       transform="matrix(0.13333333,0,0,-0.13333333,0,455.77333)" />
    <path
       id="path3"
       d="m 4429.58,1411.56 0.72,-49.46 398.59,-0.71 0.72,50.17 h -400.03"
       style="fill:#231f20;fill-opacity:1;fill-rule:nonzero;stroke:none"
       transform="matrix(0.13333333,0,0,-0.13333333,0,455.77333)" />
    <path
       id="path4"
       d="m 4429.58,1411.56 0.72,-49.46 398.59,-0.71 0.72,50.17 z"
       style="fill:none;stroke:#231f20;stroke-width:28.346;stroke-linecap:butt;stroke-linejoin:miter;stroke-miterlimit:4;stroke-dasharray:none;stroke-opacity:1"
       transform="matrix(0.13333333,0,0,-0.13333333,0,455.77333)" />
    <path
       id="path5"
       d="m 3618.31,1205.88 c 0,-406.169 -329.26,-735.431 -735.44,-735.431 -406.17,0 -735.44,329.262 -735.44,735.431 0,406.17 329.27,735.44 735.44,735.44 406.18,0 735.44,-329.27 735.44,-735.44"
       style="fill:#ffffff;fill-opacity:1;fill-rule:nonzero;stroke:none"
       transform="matrix(0.13333333,0,0,-0.13333333,0,455.77333)" />
    <path
       id="path6"
       d="m 3618.31,1205.88 c 0,-406.169 -329.26,-735.431 -735.44,-735.431 -406.17,0 -735.44,329.262 -735.44,735.431 0,406.17 329.27,735.44 735.44,735.44 406.18,0 735.44,-329.27 735.44,-735.44 z"
       style="fill:none;stroke:#231f20;stroke-width:28.346;stroke-linecap:butt;stroke-linejoin:miter;stroke-miterlimit:4;stroke-dasharray:none;stroke-opacity:1"
       transform="matrix(0.13333333,0,0,-0.13333333,0,455.77333)" />
    <path
       id="path7"
       d="m 2904.71,1215.59 c 0,-406.168 -329.27,-735.43 -735.44,-735.43 -406.17,0 -735.44,329.262 -735.44,735.43 0,406.18 329.27,735.44 735.44,735.44 432.83,0 735.44,-329.25 735.44,-735.44"
       style="fill:#ffffff;fill-opacity:1;fill-rule:nonzero;stroke:none"
       transform="matrix(0.13333333,0,0,-0.13333333,0,455.77333)" />
    <path
       id="path8"
       d="m 2904.71,1215.59 c 0,-406.168 -329.27,-735.43 -735.44,-735.43 -406.17,0 -735.44,329.262 -735.44,735.43 0,406.18 329.27,735.44 735.44,735.44 432.83,0 735.44,-329.25 735.44,-735.44 z"
       style="fill:none;stroke:#231f20;stroke-width:28.346;stroke-linecap:butt;stroke-linejoin:miter;stroke-miterlimit:4;stroke-dasharray:none;stroke-opacity:1"
       transform="matrix(0.13333333,0,0,-0.13333333,0,455.77333)" />
    <path
       id="path9"
       d="m 482.266,2067.13 c 0,0 225.605,-380.06 17.867,-431.14 -104.375,-12.07 -123.606,94.98 -85.836,163.86 31.211,54.62 99.078,156.18 67.969,267.28"
       style="fill:#231f20;fill-opacity:1;fill-rule:nonzero;stroke:none"
       transform="matrix(0.13333333,0,0,-0.13333333,0,455.77333)" />
    <path
       id="path10"
       d="m 482.266,2067.13 c 0,0 225.605,-380.06 17.867,-431.14 -104.375,-12.07 -123.606,94.98 -85.836,163.86 31.211,54.62 99.078,156.18 67.969,267.28 z"
       style="fill:none;stroke:#231f20;stroke-width:28.346;stroke-linecap:butt;stroke-linejoin:miter;stroke-miterlimit:4;stroke-dasharray:none;stroke-opacity:1"
       transform="matrix(0.13333333,0,0,-0.13333333,0,455.77333)" />
    <path
       id="path11"
       d="m 470.336,1831.77 c 0,0 -4.258,20.57 -17.023,6.38 -11.727,-13.02 -34.051,-59.58 -31.211,-69.51 2.609,-9.16 2.836,-15.61 18.441,-8.52 17.566,7.98 29.793,71.65 29.793,71.65"
       style="fill:#ffffff;fill-opacity:1;fill-rule:nonzero;stroke:none"
       transform="matrix(0.13333333,0,0,-0.13333333,0,455.77333)" />
    <path
       id="path12"
       d="m 516.441,1823.96 c 0,0 -4.933,22.73 -26.242,-0.7 -7.097,-7.81 -26.25,-55.34 -28.379,-63.14 -2.125,-7.8 -13.476,-31.92 -9.218,-42.56 4.257,-10.65 17.285,-23.81 29.082,-11.35 12.769,13.48 33.339,51.07 36.183,77.32 2.391,22.15 -1.426,40.43 -1.426,40.43"
       style="fill:#ffffff;fill-opacity:1;fill-rule:nonzero;stroke:none"
       transform="matrix(0.13333333,0,0,-0.13333333,0,455.77333)" />
    <path
       id="path13"
       d="m 534.887,1784.95 c 0,0 14.191,-88.67 -23.407,-87.26 -7.804,2.85 -12.062,10.65 3.543,32.64 11.348,17.02 19.864,54.62 19.864,54.62"
       style="fill:#ffffff;fill-opacity:1;fill-rule:nonzero;stroke:none"
       transform="matrix(0.13333333,0,0,-0.13333333,0,455.77333)" />
    <path
       id="path14"
       d="m 307.027,1449.47 -1.25,-23.75 347.5,-1.25 v 37.5 l -346.25,-2.5 v -10"
       style="fill:#231f20;fill-opacity:1;fill-rule:nonzero;stroke:none"
       transform="matrix(0.13333333,0,0,-0.13333333,0,455.77333)" />
    <path
       id="path15"
       d="m 307.027,1449.47 -1.25,-23.75 347.5,-1.25 v 37.5 l -346.25,-2.5 z"
       style="fill:none;stroke:#231f20;stroke-width:8.504;stroke-linecap:butt;stroke-linejoin:miter;stroke-miterlimit:4;stroke-dasharray:none;stroke-opacity:1"
       transform="matrix(0.13333333,0,0,-0.13333333,0,455.77333)" />
    <path
       id="path16"
       d="m 279.527,1424.47 1.25,-62.5 h 397.5 v 61.25 l -398.75,1.25"
       style="fill:#231f20;fill-opacity:1;fill-rule:nonzero;stroke:none"
       transform="matrix(0.13333333,0,0,-0.13333333,0,455.77333)" />
    <path
       id="path17"
       d="m 279.527,1424.47 1.25,-62.5 h 397.5 v 61.25 z"
       style="fill:none;stroke:#231f20;stroke-width:8.504;stroke-linecap:butt;stroke-linejoin:miter;stroke-miterlimit:4;stroke-dasharray:none;stroke-opacity:1"
       transform="matrix(0.13333333,0,0,-0.13333333,0,455.77333)" />
    <path
       id="path18"
       d="m 432.027,748.219 v -123.75 h -28.75 v -85 l 25,-1.25 1.25,-113.75 13.75,-11.25 h 70 l 13.75,10 v 112.5 l 25,2.5 1.25,83.75 -35,2.5 -1.25,112.5 -85,11.25"
       style="fill:#231f20;fill-opacity:1;fill-rule:nonzero;stroke:none"
       transform="matrix(0.13333333,0,0,-0.13333333,0,455.77333)" />
    <path
       id="path19"
       d="m 432.027,748.219 v -123.75 h -28.75 v -85 l 25,-1.25 1.25,-113.75 13.75,-11.25 h 70 l 13.75,10 v 112.5 l 25,2.5 1.25,83.75 -35,2.5 -1.25,112.5 z"
       style="fill:none;stroke:#231f20;stroke-width:8.504;stroke-linecap:butt;stroke-linejoin:miter;stroke-miterlimit:4;stroke-dasharray:none;stroke-opacity:1"
       transform="matrix(0.13333333,0,0,-0.13333333,0,455.77333)" />
    <path
       id="path20"
       d="m 2030.78,1874.47 c 0,0 -50,35 -61.67,26.67 -11.66,-8.33 -20,-33.34 -43.33,-35 -23.33,-1.67 -40,15 -26.67,21.67 -40,-10 -223.33,-90 -283.33,-181.67 -11.67,-45 -10,-50 -8.33,-65 1.66,-15 -10,-23.34 -18.34,-41.67 -8.33,-18.33 -24.99,-63.34 -1.66,-100 35,-18.33 28.33,-16.66 41.66,-23.33 10,-10 26.67,-35.01 21.67,-56.67 -5,-21.66 -6.1,-49.89 -6.1,-49.89 0,0 41.28,10.32 77.4,21.49 3.33,31.68 10.37,80.06 83.7,93.4 16.67,-21.66 6.59,-71.89 6.59,-71.89 l 75.67,17.19 -13.93,64.7 c 0,0 63.34,45 76.67,65 13.33,20 25.68,40.04 43.33,43.34 22.06,4.11 16.67,-8.34 23.34,-23.34 6.66,-15 16.66,-18.33 21.66,-3.33 5,15 5,96.67 15,100 10,3.33 16.67,-21.67 36.67,-25 20,-3.33 26.67,36.67 13.33,55 -6.66,33.33 -41.66,101.67 -60,95 -18.33,-6.67 -70,-98.33 -83.33,-80 -13.33,18.33 11.67,60 25,75 13.33,15 13.33,31.66 30,33.33 16.67,1.67 21.67,3.33 38.33,-10 23.34,-5 51.67,25 40,35 -11.66,10 -56.66,21.67 -63.33,20"
       style="fill:#231f20;fill-opacity:1;fill-rule:nonzero;stroke:none"
       transform="matrix(0.13333333,0,0,-0.13333333,0,455.77333)" />
    <path
       id="path21"
       d="m 2030.78,1874.47 c 0,0 -50,35 -61.67,26.67 -11.66,-8.33 -20,-33.34 -43.33,-35 -23.33,-1.67 -40,15 -26.67,21.67 -40,-10 -223.33,-90 -283.33,-181.67 -11.67,-45 -10,-50 -8.33,-65 1.66,-15 -10,-23.34 -18.34,-41.67 -8.33,-18.33 -24.99,-63.34 -1.66,-100 35,-18.33 28.33,-16.66 41.66,-23.33 10,-10 26.67,-35.01 21.67,-56.67 -5,-21.66 -6.1,-49.89 -6.1,-49.89 0,0 41.28,10.32 77.4,21.49 3.33,31.68 10.37,80.06 83.7,93.4 16.67,-21.66 6.59,-71.89 6.59,-71.89 l 75.67,17.19 -13.93,64.7 c 0,0 63.34,45 76.67,65 13.33,20 25.68,40.04 43.33,43.34 22.06,4.11 16.67,-8.34 23.34,-23.34 6.66,-15 16.66,-18.33 21.66,-3.33 5,15 5,96.67 15,100 10,3.33 16.67,-21.67 36.67,-25 20,-3.33 26.67,36.67 13.33,55 -6.66,33.33 -41.66,101.67 -60,95 -18.33,-6.67 -70,-98.33 -83.33,-80 -13.33,18.33 11.67,60 25,75 13.33,15 13.33,31.66 30,33.33 16.67,1.67 21.67,3.33 38.33,-10 23.34,-5 51.67,25 40,35 -11.66,10 -56.66,21.67 -63.33,20 z"
       style="fill:none;stroke:#231f20;stroke-width:8.504;stroke-linecap:butt;stroke-linejoin:miter;stroke-miterlimit:4;stroke-dasharray:none;stroke-opacity:1"
       transform="matrix(0.13333333,0,0,-0.13333333,0,455.77333)" />
    <path
       id="path22"
       d="m 1969.11,1826.14 c 0,0 -60,-41.66 -55,-70 13.34,-10 18.34,0 38.34,21.67 20,21.66 33.33,50 16.66,48.33 z"
       style="fill:none;stroke:#231f20;stroke-width:8.504;stroke-linecap:butt;stroke-linejoin:miter;stroke-miterlimit:4;stroke-dasharray:none;stroke-opacity:1"
       transform="matrix(0.13333333,0,0,-0.13333333,0,455.77333)" />
    <path
       id="path23"
       d="m 1890.78,1672.81 c 0,0 -41.66,6.66 -33.33,-20 13.33,-13.34 33.33,-10 36.66,0 3.34,10 -3.33,20 -3.33,20"
       style="fill:#ffffff;fill-opacity:1;fill-rule:nonzero;stroke:none"
       transform="matrix(0.13333333,0,0,-0.13333333,0,455.77333)" />
    <path
       id="path24"
       d="m 1890.78,1672.81 c 0,0 -41.66,6.66 -33.33,-20 13.33,-13.34 33.33,-10 36.66,0 3.34,10 -3.33,20 -3.33,20 z"
       style="fill:none;stroke:#ffffff;stroke-width:8.504;stroke-linecap:butt;stroke-linejoin:miter;stroke-miterlimit:4;stroke-dasharray:none;stroke-opacity:1"
       transform="matrix(0.13333333,0,0,-0.13333333,0,455.77333)" />
    <path
       id="path25"
       d="m 1915.78,1644.47 -20,-11.76 c 0,0 -10,-11.57 -1.67,-16.57 8.34,-5 18.34,1.67 23.34,11.67 5,10 -1.67,16.66 -1.67,16.66"
       style="fill:#ffffff;fill-opacity:1;fill-rule:nonzero;stroke:none"
       transform="matrix(0.13333333,0,0,-0.13333333,0,455.77333)" />
    <path
       id="path26"
       d="m 1915.78,1644.47 -20,-11.76 c 0,0 -10,-11.57 -1.67,-16.57 8.34,-5 18.34,1.67 23.34,11.67 5,10 -1.67,16.66 -1.67,16.66 z"
       style="fill:none;stroke:#ffffff;stroke-width:8.504;stroke-linecap:butt;stroke-linejoin:miter;stroke-miterlimit:4;stroke-dasharray:none;stroke-opacity:1"
       transform="matrix(0.13333333,0,0,-0.13333333,0,455.77333)" />
    <path
       id="path27"
       d="m 4744.8,1179.18 c 0,0 50.98,67.79 60.98,100.29 -85,-35 -271.53,-34.94 -297.5,-27.5 -30,0 -115,42.5 -115,42.5 0,0 -5,-10 -40,-72.5 105,-87.5 130,-187.5 130,-187.5 l 37.5,20 340,187.5 c 0,0 45,-30 77.5,-60 -22.5,-15 -80,-58.55 -85,-137.5 2.5,-95.001 165.57,-35.76 180.63,-43.64 40.86,-22.939 20.79,-27.959 -173.13,-118.861 C 4791.8,849.781 4719.14,824.5 4568.13,770.738 4388.53,705.531 4250.7,660.68 3904.71,654.91 c -415,-20 -651.43,74.559 -811.43,124.559 -160,45 -130.28,54.402 -117.92,58.73 4.28,1.512 47.92,11.27 115.42,48.77 52.5,82.5 -5,107.5 -12.5,132.501 -12.5,45 40,15 40,15 0,0 339.83,-141.7 747.59,-122.271 388.35,24.262 404.91,27.27 617.41,122.271"
       style="fill:#ffffff;fill-opacity:1;fill-rule:nonzero;stroke:#231f20;stroke-width:28.346;stroke-linecap:square;stroke-linejoin:bevel;stroke-miterlimit:4;stroke-dasharray:none;stroke-opacity:1"
       transform="matrix(0.13333333,0,0,-0.13333333,0,455.77333)" />
    <path
       id="path28"
       d="m 4575.78,779.469 -2.5,-115 -45,-7.5 2.5,-82.5 h 35 l 5,-110 82.5,2.5 5,105 22.5,2.5 v 87.5 h -20 l -5,147.5 -80,-30"
       style="fill:#231f20;fill-opacity:1;fill-rule:nonzero;stroke:none"
       transform="matrix(0.13333333,0,0,-0.13333333,0,455.77333)" />
    <path
       id="path29"
       d="m 4575.78,779.469 -2.5,-115 -45,-7.5 2.5,-82.5 h 35 l 5,-110 82.5,2.5 5,105 22.5,2.5 v 87.5 h -20 l -5,147.5 z"
       style="fill:none;stroke:#231f20;stroke-width:8.504;stroke-linecap:butt;stroke-linejoin:miter;stroke-miterlimit:4;stroke-dasharray:none;stroke-opacity:1"
       transform="matrix(0.13333333,0,0,-0.13333333,0,455.77333)" />
    <path
       id="path30"
       d="m 4624.58,2067.53 c 0,0 -130.47,-179.95 -105.39,-301.82 19.36,-79.58 25.81,-90.32 83.88,-134.77 58.07,-14.34 90.33,29.39 95.35,41.58 5.01,12.19 43.01,45.15 -0.72,136.92 -48.75,75.28 -86.03,111.84 -82.44,175.64 2.87,56.64 2.86,75.99 9.32,82.45"
       style="fill:#231f20;fill-opacity:1;fill-rule:nonzero;stroke:none"
       transform="matrix(0.13333333,0,0,-0.13333333,0,455.77333)" />
    <path
       id="path31"
       d="m 4624.58,2067.53 c 0,0 -130.47,-179.95 -105.39,-301.82 19.36,-79.58 25.81,-90.32 83.88,-134.77 58.07,-14.34 90.33,29.39 95.35,41.58 5.01,12.19 43.01,45.15 -0.72,136.92 -48.75,75.28 -86.03,111.84 -82.44,175.64 2.87,56.64 2.86,75.99 9.32,82.45 z"
       style="fill:none;stroke:#231f20;stroke-width:28.346;stroke-linecap:butt;stroke-linejoin:miter;stroke-miterlimit:4;stroke-dasharray:none;stroke-opacity:1"
       transform="matrix(0.13333333,0,0,-0.13333333,0,455.77333)" />
    <path
       id="path32"
       d="m 4570.09,1787.22 c 0,0 -28.68,-43.73 21.51,-91.05 12.91,-7.17 13.62,0 13.62,0 0,0 -8.59,40.16 -14.34,47.32 -5.73,7.17 -11.46,42.3 -20.79,43.73"
       style="fill:#ffffff;fill-opacity:1;fill-rule:nonzero;stroke:none"
       transform="matrix(0.13333333,0,0,-0.13333333,0,455.77333)" />
    <path
       id="path33"
       d="m 4570.09,1787.22 c 0,0 -28.68,-43.73 21.51,-91.05 12.91,-7.17 13.62,0 13.62,0 0,0 -8.59,40.16 -14.34,47.32 -5.73,7.17 -11.46,42.3 -20.79,43.73 z"
       style="fill:none;stroke:#ffffff;stroke-width:8.504;stroke-linecap:butt;stroke-linejoin:miter;stroke-miterlimit:4;stroke-dasharray:none;stroke-opacity:1"
       transform="matrix(0.13333333,0,0,-0.13333333,0,455.77333)" />
    <path
       id="path34"
       d="m 4598.77,1848.15 c 0,0 -18.64,-22.22 2.15,-80.29 19.36,-58.78 19.36,-65.22 17.92,-68.1 -1.43,-2.87 3.6,-5.74 12.19,-2.15 8.6,3.58 35.14,26.53 15.77,65.24 -19.35,38.71 -29.39,65.94 -34.41,68.81 -5.02,2.87 -13.62,16.49 -13.62,16.49"
       style="fill:#ffffff;fill-opacity:1;fill-rule:nonzero;stroke:none"
       transform="matrix(0.13333333,0,0,-0.13333333,0,455.77333)" />
    <path
       id="path35"
       d="m 4598.77,1848.15 c 0,0 -18.64,-22.22 2.15,-80.29 19.36,-58.78 19.36,-65.22 17.92,-68.1 -1.43,-2.87 3.6,-5.74 12.19,-2.15 8.6,3.58 35.14,26.53 15.77,65.24 -19.35,38.71 -29.39,65.94 -34.41,68.81 -5.02,2.87 -13.62,16.49 -13.62,16.49 z"
       style="fill:none;stroke:#ffffff;stroke-width:8.504;stroke-linecap:butt;stroke-linejoin:miter;stroke-miterlimit:4;stroke-dasharray:none;stroke-opacity:1"
       transform="matrix(0.13333333,0,0,-0.13333333,0,455.77333)" />
    <path
       id="path36"
       d="m 4637.49,1845.29 c 0,0 -2.88,-33.7 17.2,-60.22 14.34,-27.96 8.6,-33.7 17.2,-35.85 8.6,-2.15 12.91,42.3 4.31,52.34 -8.61,10.04 -30.11,52.33 -34.42,48.03 -4.29,-4.3 -4.29,-4.3 -4.29,-4.3"
       style="fill:#ffffff;fill-opacity:1;fill-rule:nonzero;stroke:none"
       transform="matrix(0.13333333,0,0,-0.13333333,0,455.77333)" />
    <path
       id="path37"
       d="m 4637.49,1845.29 c 0,0 -2.88,-33.7 17.2,-60.22 14.34,-27.96 8.6,-33.7 17.2,-35.85 8.6,-2.15 12.91,42.3 4.31,52.34 -8.61,10.04 -30.11,52.33 -34.42,48.03 z"
       style="fill:none;stroke:#ffffff;stroke-width:8.504;stroke-linecap:butt;stroke-linejoin:miter;stroke-miterlimit:4;stroke-dasharray:none;stroke-opacity:1"
       transform="matrix(0.13333333,0,0,-0.13333333,0,455.77333)" />
    <path
       id="path38"
       d="m 4554.32,1622.32 0.72,-48.74 148.39,-1.43 v 50.17 h -149.11"
       style="fill:#231f20;fill-opacity:1;fill-rule:nonzero;stroke:none"
       transform="matrix(0.13333333,0,0,-0.13333333,0,455.77333)" />
    <path
       id="path39"
       d="m 4554.32,1622.32 0.72,-48.74 148.39,-1.43 v 50.17 z"
       style="fill:none;stroke:#231f20;stroke-width:8.504;stroke-linecap:butt;stroke-linejoin:miter;stroke-miterlimit:4;stroke-dasharray:none;stroke-opacity:1"
       transform="matrix(0.13333333,0,0,-0.13333333,0,455.77333)" />
    <path
       id="path40"
       d="m 4455.4,1458.16 0.71,-43.73 349.84,-2.15 -1.43,48.03 -349.12,-2.15"
       style="fill:#231f20;fill-opacity:1;fill-rule:nonzero;stroke:none"
       transform="matrix(0.13333333,0,0,-0.13333333,0,455.77333)" />
    <path
       id="path41"
       d="m 4455.4,1458.16 0.71,-43.73 349.84,-2.15 -1.43,48.03 z"
       style="fill:none;stroke:#231f20;stroke-width:28.346;stroke-linecap:butt;stroke-linejoin:miter;stroke-miterlimit:4;stroke-dasharray:none;stroke-opacity:1"
       transform="matrix(0.13333333,0,0,-0.13333333,0,455.77333)" />
    <path
       id="path42"
       d="m 4586.98,1578.1 c 0,0 -54.05,-109.47 -102.8,-120.21"
       style="fill:none;stroke:#231f20;stroke-width:28.346;stroke-linecap:butt;stroke-linejoin:miter;stroke-miterlimit:4;stroke-dasharray:none;stroke-opacity:1"
       transform="matrix(0.13333333,0,0,-0.13333333,0,455.77333)" />
    <path
       id="path43"
       d="m 4686.95,1571.44 c 0,0 15.78,-99.53 83.16,-112.44"
       style="fill:none;stroke:#231f20;stroke-width:28.346;stroke-linecap:butt;stroke-linejoin:miter;stroke-miterlimit:4;stroke-dasharray:none;stroke-opacity:1"
       transform="matrix(0.13333333,0,0,-0.13333333,0,455.77333)" />
    <path
       id="path44"
       d="m 4601.64,1529.14 -40.86,-69.53"
       style="fill:none;stroke:#231f20;stroke-width:28.346;stroke-linecap:round;stroke-linejoin:miter;stroke-miterlimit:4;stroke-dasharray:none;stroke-opacity:1"
       transform="matrix(0.13333333,0,0,-0.13333333,0,455.77333)" />
    <path
       id="path45"
       d="m 4666.16,1531.3 40.14,-65.96"
       style="fill:none;stroke:#231f20;stroke-width:28.346;stroke-linecap:round;stroke-linejoin:miter;stroke-miterlimit:4;stroke-dasharray:none;stroke-opacity:1"
       transform="matrix(0.13333333,0,0,-0.13333333,0,455.77333)" />
    <path
       id="path46"
       d="m 4637.49,1541.33 c 0,0 14.02,-79.4 24.77,-85.13"
       style="fill:none;stroke:#231f20;stroke-width:28.346;stroke-linecap:round;stroke-linejoin:miter;stroke-miterlimit:4;stroke-dasharray:none;stroke-opacity:1"
       transform="matrix(0.13333333,0,0,-0.13333333,0,455.77333)" />
    <path
       id="path47"
       d="m 4636.42,1538.22 c 0,0 -15.19,-76.03 -28.09,-80.33"
       style="fill:none;stroke:#231f20;stroke-width:28.346;stroke-linecap:round;stroke-linejoin:miter;stroke-miterlimit:4;stroke-dasharray:none;stroke-opacity:1"
       transform="matrix(0.13333333,0,0,-0.13333333,0,455.77333)" />
    <path
       id="path48"
       d="m 2033.47,3156.92 c 0,0 46.59,36.26 44.72,68.73 -15.35,32.04 -3.34,34.04 -18.69,36.71 1.33,17.35 22.69,44.72 11.34,68.74 18.02,-10.68 27.37,-38.71 39.38,-34.04 12.01,4.68 17.35,35.37 8.68,86.09 13.34,-9.34 21.35,-36.03 31.36,-36.03 10.01,0 22.69,0.66 19.35,60.06 10.01,-6.01 16.69,-35.38 27.37,-46.72 10.68,-11.34 24.02,-6.67 30.03,6.01 6,12.68 17.68,39.87 21.35,43.38 5.85,5.6 16.69,6.01 17.36,1.33 0.66,-4.67 -13.35,-45.38 2,-50.05 15.35,-4.67 29.36,7.33 38.7,26.69 12.69,13.35 16.02,15.35 21.36,-2 5.34,-17.35 8.01,-44.71 2,-59.39 12.68,-2.01 30.03,3.34 37.37,30.03 14.02,-4.67 27.22,-77.51 -11.34,-96.1 -24.23,-11.68 -48.05,-11.35 -62.06,-11.35 -14.02,0 -17.36,-10.01 -14.02,-18.01 3.34,-8.01 6.67,-26.7 -14.01,-34.04 -20.7,-7.34 -30.04,2 -50.72,-9.34 -20.69,-11.35 -24,-22.87 -34.01,-26.87 -10.01,-4 -29.22,-49.32 -49.94,-12.79 -7.22,12.73 -16.16,20.3 -36.18,18.97 -20.02,-1.34 -46.71,0 -61.4,-10.01"
       style="fill:#231f20;fill-opacity:1;fill-rule:nonzero;stroke:none"
       transform="matrix(0.13333333,0,0,-0.13333333,0,455.77333)" />
    <path
       id="path49"
       d="m 2033.47,3156.92 c 0,0 46.59,36.26 44.72,68.73 -15.35,32.04 -3.34,34.04 -18.69,36.71 1.33,17.35 22.69,44.72 11.34,68.74 18.02,-10.68 27.37,-38.71 39.38,-34.04 12.01,4.68 17.35,35.37 8.68,86.09 13.34,-9.34 21.35,-36.03 31.36,-36.03 10.01,0 22.69,0.66 19.35,60.06 10.01,-6.01 16.69,-35.38 27.37,-46.72 10.68,-11.34 24.02,-6.67 30.03,6.01 6,12.68 17.68,39.87 21.35,43.38 5.85,5.6 16.69,6.01 17.36,1.33 0.66,-4.67 -13.35,-45.38 2,-50.05 15.35,-4.67 29.36,7.33 38.7,26.69 12.69,13.35 16.02,15.35 21.36,-2 5.34,-17.35 8.01,-44.71 2,-59.39 12.68,-2.01 30.03,3.34 37.37,30.03 14.02,-4.67 27.22,-77.51 -11.34,-96.1 -24.23,-11.68 -48.05,-11.35 -62.06,-11.35 -14.02,0 -17.36,-10.01 -14.02,-18.01 3.34,-8.01 6.67,-26.7 -14.01,-34.04 -20.7,-7.34 -30.04,2 -50.72,-9.34 -20.69,-11.35 -24,-22.87 -34.01,-26.87 -10.01,-4 -29.22,-49.32 -49.94,-12.79 -7.22,12.73 -16.16,20.3 -36.18,18.97 -20.02,-1.34 -46.71,0 -61.4,-10.01 z"
       style="fill:none;stroke:#231f20;stroke-width:8.504;stroke-linecap:butt;stroke-linejoin:miter;stroke-miterlimit:4;stroke-dasharray:none;stroke-opacity:1"
       transform="matrix(0.13333333,0,0,-0.13333333,0,455.77333)" />
    <path
       id="path50"
       d="m 2114.22,3284.38 c 0,0 -35.37,-14.67 -23.36,-27.36 12.02,-12.68 12.68,-10.67 17.36,-9.34 4.67,1.33 9.34,6.68 10.01,16.02 0.67,9.34 0,20.68 -4.01,20.68"
       style="fill:#ffffff;fill-opacity:1;fill-rule:nonzero;stroke:none"
       transform="matrix(0.13333333,0,0,-0.13333333,0,455.77333)" />
    <path
       id="path51"
       d="m 2162.94,3333.77 c 0,0 -11.34,-8.67 -20.69,-28.7 -9.34,-20.02 -16.01,-23.35 -10.01,-32.7 6.01,-9.34 10.01,-10.01 16.02,-6.67 6,3.33 19.35,12.68 19.35,22.02 0,9.34 1.34,34.7 0,38.71 -1.33,4 0,10.68 -4.67,7.34"
       style="fill:#ffffff;fill-opacity:1;fill-rule:nonzero;stroke:none"
       transform="matrix(0.13333333,0,0,-0.13333333,0,455.77333)" />
    <path
       id="path52"
       d="m 2204.32,3332.43 c 0,0 -23.36,11.35 -20.69,-1.33 2.67,-12.68 -4.01,-16.02 5.34,-24.03 9.35,-8 7.34,-6.67 10.01,-13.34 2.67,-6.68 5.34,-9.35 10.01,-9.35 4.67,0 12.32,12.07 9.66,25.42 -2.67,13.35 -3.65,17.96 -14.33,22.63"
       style="fill:#ffffff;fill-opacity:1;fill-rule:nonzero;stroke:none"
       transform="matrix(0.13333333,0,0,-0.13333333,0,455.77333)" />
    <path
       id="path53"
       d="m 2253.03,3347.12 c 0,0 -0.76,-0.07 -2.07,-0.45 -2.93,-0.86 -8.61,-3.31 -14.61,-10.24 -8.67,-10 -10.01,-14.67 -8.01,-24.02 2.01,-9.34 1.34,-14.01 10.68,-14.68 9.34,-0.67 11.79,4.98 17.81,14.69 10.67,17.21 0.05,35.18 -2.62,34.51"
       style="fill:#ffffff;fill-opacity:1;fill-rule:nonzero;stroke:none"
       transform="matrix(0.13333333,0,0,-0.13333333,0,455.77333)" />
    <path
       id="path54"
       d="m 2299.09,3337.11 c 0,0 -4.01,0.66 -8.02,-19.36 -4,-20.02 -6.67,-24.7 -10.67,-19.35 -4.01,5.34 -7.16,13.71 -10.5,3.03 -3.34,-10.67 -2.29,-11.82 1.04,-15.16 3.34,-3.34 6.79,-11.89 16.13,-11.89 9.34,0 14.68,2.66 20.02,12.67 5.34,10.01 8.68,14.69 6.67,22.02 -2,7.34 -1.32,12.69 -5.33,18.69 -4.01,6.01 -6.01,12.01 -9.34,9.35"
       style="fill:#ffffff;fill-opacity:1;fill-rule:nonzero;stroke:none"
       transform="matrix(0.13333333,0,0,-0.13333333,0,455.77333)" />
    <path
       id="path55"
       d="m 2356.48,3321.09 c 0,0 -15.35,-14.01 -23.36,-24.03 -8.01,-10.01 -19.36,-12.68 -22.69,-20.68 -3.34,-8.01 8.68,-19.36 22.69,-13.35 14.01,6 19.36,8.01 24.69,20.02 5.34,12.01 9.34,18.02 8.68,29.36 -0.67,11.35 -3.34,16.02 -10.01,8.68"
       style="fill:#ffffff;fill-opacity:1;fill-rule:nonzero;stroke:none"
       transform="matrix(0.13333333,0,0,-0.13333333,0,455.77333)" />
    <path
       id="path56"
       d="m 2154.13,3246.92 c 0,0 -20.02,-5.34 -32.71,-14.01 -12.67,-8.68 -28.69,-2.68 -23.35,-18.69 5.33,-16.02 -0.31,-21.69 11.04,-28.37 11.34,-6.67 19.18,-6.94 29,-19.01 7.12,-8.77 3.16,-5.17 15.01,-6.19 11.37,-0.98 7.84,10.19 18.85,12.21 8.83,1.63 12.19,19.34 4.18,20 -8.01,0.68 -30.7,-3.33 -32.03,6.01 -1.34,9.34 1.32,18.69 6.67,24.03 5.34,5.33 10.67,18.68 8.67,20.68 -2,2.01 -5.33,3.34 -5.33,3.34"
       style="fill:#ffffff;fill-opacity:1;fill-rule:nonzero;stroke:none"
       transform="matrix(0.13333333,0,0,-0.13333333,0,455.77333)" />
    <path
       id="path57"
       d="m 2218.98,3261.51 c 0,0 -24.02,12.01 -28.69,-12.68 3.33,-9.35 12.68,-17.35 19.35,-20.02 6.67,-2.67 4.67,-2.01 12.02,-6.67 7.33,-4.68 20.68,-8.68 23.35,-3.34 2.67,5.34 8.01,21.36 -12.01,30.03 -15.35,14.69 -14.02,12.68 -14.02,12.68"
       style="fill:#ffffff;fill-opacity:1;fill-rule:nonzero;stroke:none"
       transform="matrix(0.13333333,0,0,-0.13333333,0,455.77333)" />
    <path
       id="path58"
       d="m 2106.36,3157.3 c 0,0 -10.67,-4.67 -14.01,-19.35 -3.34,-14.68 -17.01,-23.99 -22.35,-36 -5.35,-12.01 -7.02,-44.75 5.66,-66.11 12.68,-21.36 14.02,-44.71 23.36,-41.38 9.34,3.34 15.03,2.63 36.71,42.05 21.73,39.53 17.55,56.26 12.67,77.42 -4.69,20.41 -12.67,31.36 -17.35,34.03 -4.67,2.67 -21.35,11.34 -24.69,9.34"
       style="fill:#ffffff;fill-opacity:1;fill-rule:nonzero;stroke:none"
       transform="matrix(0.13333333,0,0,-0.13333333,0,455.77333)" />
    <path
       id="path59"
       d="m 2106.36,3157.3 c 0,0 -10.67,-4.67 -14.01,-19.35 -3.34,-14.68 -17.01,-23.99 -22.35,-36 -5.35,-12.01 -7.02,-44.75 5.66,-66.11 12.68,-21.36 14.02,-44.71 23.36,-41.38 9.34,3.34 15.03,2.63 36.71,42.05 21.73,39.53 17.55,56.26 12.67,77.42 -4.69,20.41 -12.67,31.36 -17.35,34.03 -4.67,2.67 -21.35,11.34 -24.69,9.34 z"
       style="fill:none;stroke:#231f20;stroke-width:28.346;stroke-linecap:butt;stroke-linejoin:miter;stroke-miterlimit:4;stroke-dasharray:none;stroke-opacity:1"
       transform="matrix(0.13333333,0,0,-0.13333333,0,455.77333)" />
    <path
       id="path60"
       d="m 2392.03,2395.73 c 0,0 -21.25,-48.75 47.5,-143.75 57.5,-100 61.25,-108.75 51.25,-158.75 -10,-50 -5,-157.5 -43.75,-176.25 -35.99,-17.42 -70.57,3.82 -106.68,-6.5 -21.67,-6.19 -37.85,-20.64 -25.82,-23.5 16.52,-3.94 -38.21,-24.67 -36.96,-38.42 1.25,-13.75 86.27,30.47 108.21,9.67 15.62,-14.82 11.32,-25.15 22.5,-26.25 5.56,-0.56 12.5,22.5 32.5,22.5 20,0 31.25,-13.75 45,-11.25 13.75,2.5 22.5,5 12.5,16.25 -10,11.25 -16.25,30 -11.25,48.75 5,18.75 2.5,37.5 18.75,33.75 16.25,-3.75 10,-11.25 25,-15 15,-3.75 27.5,6.25 22.5,15 -5,8.75 -71.25,28.75 -27.5,138.75 25,65 66.25,155 66.25,155 0,0 -135,142.5 -200,160"
       style="fill:#ffffff;fill-opacity:1;fill-rule:nonzero;stroke:none"
       transform="matrix(0.13333333,0,0,-0.13333333,0,455.77333)" />
    <path
       id="path61"
       d="m 2392.03,2395.73 c 0,0 -21.25,-48.75 47.5,-143.75 57.5,-100 61.25,-108.75 51.25,-158.75 -10,-50 -5,-157.5 -43.75,-176.25 -35.99,-17.42 -70.57,3.82 -106.68,-6.5 -21.67,-6.19 -37.85,-20.64 -25.82,-23.5 16.52,-3.94 -38.21,-24.67 -36.96,-38.42 1.25,-13.75 86.27,30.47 108.21,9.67 15.62,-14.82 11.32,-25.15 22.5,-26.25 5.56,-0.56 12.5,22.5 32.5,22.5 20,0 31.25,-13.75 45,-11.25 13.75,2.5 22.5,5 12.5,16.25 -10,11.25 -16.25,30 -11.25,48.75 5,18.75 2.5,37.5 18.75,33.75 16.25,-3.75 10,-11.25 25,-15 15,-3.75 27.5,6.25 22.5,15 -5,8.75 -71.25,28.75 -27.5,138.75 25,65 66.25,155 66.25,155 0,0 -135,142.5 -200,160 z"
       style="fill:none;stroke:#231f20;stroke-width:28.346;stroke-linecap:butt;stroke-linejoin:miter;stroke-miterlimit:4;stroke-dasharray:none;stroke-opacity:1"
       transform="matrix(0.13333333,0,0,-0.13333333,0,455.77333)" />
    <path
       id="path62"
       d="m 1798.01,1156.21 c 0,0 -5.44,-84.26 1.81,-96.94 7.25,-12.69 129.57,-214.739 135,-260.051 5.44,-45.297 16.31,-150.41 77.93,-183.93 2.71,57.082 9.96,144.063 53.46,178.5 43.49,34.43 51.64,63.422 49.83,87.891 -1.81,24.449 22.66,28.992 32.62,57.082 9.97,28.078 0,63.428 6.34,72.488 6.34,9.06 49.83,45.3 18.12,96.03 -31.71,50.75 -48.02,55.28 -79.73,56.19 -31.72,0.9 -48.93,-5.44 -48.93,9.05 0,14.5 29.9,49.84 29.9,49.84 l -276.35,-66.15"
       style="fill:#231f20;fill-opacity:1;fill-rule:nonzero;stroke:none"
       transform="matrix(0.13333333,0,0,-0.13333333,0,455.77333)" />
    <path
       id="path63"
       d="m 1798.01,1156.21 c 0,0 -5.44,-84.26 1.81,-96.94 7.25,-12.69 129.57,-214.739 135,-260.051 5.44,-45.297 16.31,-150.41 77.93,-183.93 2.71,57.082 9.96,144.063 53.46,178.5 43.49,34.43 51.64,63.422 49.83,87.891 -1.81,24.449 22.66,28.992 32.62,57.082 9.97,28.078 0,63.428 6.34,72.488 6.34,9.06 49.83,45.3 18.12,96.03 -31.71,50.75 -48.02,55.28 -79.73,56.19 -31.72,0.9 -48.93,-5.44 -48.93,9.05 0,14.5 29.9,49.84 29.9,49.84 z"
       style="fill:none;stroke:#231f20;stroke-width:8.504;stroke-linecap:butt;stroke-linejoin:miter;stroke-miterlimit:4;stroke-dasharray:none;stroke-opacity:1"
       transform="matrix(0.13333333,0,0,-0.13333333,0,455.77333)" />
    <path
       id="path64"
       d="m 2367.04,1252.26 c 0,0 -14.51,-31.7 51.64,-31.7 66.14,0 104.2,-0.01 107.82,-23.57 3.63,-23.55 31.72,-79.73 28.09,-115.06 -3.62,-35.34 -10.87,-48.03 -3.62,-76.11 7.25,-28.09 5.43,-96.058 18.12,-122.332 12.68,-26.258 3.62,-28.078 13.59,-56.168 9.97,-28.082 14.49,-20.851 48.02,-17.218 33.52,3.628 46.21,15.41 58.89,37.148 12.69,21.75 20.84,46.211 38.97,57.082 18.12,10.879 11.78,16.309 6.34,28.09 -5.43,11.777 24.46,35.328 33.52,77.928 9.07,42.58 3.64,49.82 -3.62,80.64 -7.25,30.81 11.78,55.27 32.62,73.38 20.84,18.13 48.02,60.71 50.74,67.96 2.71,7.26 -480.22,22.66 -480.22,22.66"
       style="fill:#231f20;fill-opacity:1;fill-rule:nonzero;stroke:#231f20;stroke-width:8.504;stroke-linecap:butt;stroke-linejoin:miter;stroke-miterlimit:4;stroke-dasharray:none;stroke-opacity:1"
       transform="matrix(0.13333333,0,0,-0.13333333,0,455.77333)" />
    <path
       id="path65"
       d="m 2856.31,1042.97 c -5.45,0.84 -45.29,1.81 -53.45,-28.09 -8.16,-29.9 -4.53,-20.841 -12.69,-40.778 -8.15,-19.93 -20.84,-43.493 -13.59,-52.551 7.25,-9.063 13.59,-19.93 38.05,-7.25 24.47,12.687 25.37,31.711 29.91,46.211 4.53,14.5 3.62,39.868 10.87,49.838 7.25,9.96 12.69,30.8 0.9,32.62"
       style="fill:#231f20;fill-opacity:1;fill-rule:nonzero;stroke:none"
       transform="matrix(0.13333333,0,0,-0.13333333,0,455.77333)" />
    <path
       id="path66"
       d="m 2856.31,1042.97 c -5.45,0.84 -45.29,1.81 -53.45,-28.09 -8.16,-29.9 -4.53,-20.841 -12.69,-40.778 -8.15,-19.93 -20.84,-43.493 -13.59,-52.551 7.25,-9.063 13.59,-19.93 38.05,-7.25 24.47,12.687 25.37,31.711 29.91,46.211 4.53,14.5 3.62,39.868 10.87,49.838 7.25,9.96 12.69,30.8 0.9,32.62 z"
       style="fill:none;stroke:#231f20;stroke-width:8.504;stroke-linecap:butt;stroke-linejoin:miter;stroke-miterlimit:4;stroke-dasharray:none;stroke-opacity:1"
       transform="matrix(0.13333333,0,0,-0.13333333,0,455.77333)" />
    <path
       id="path67"
       d="m 2698.28,1921.98 c 0,0 -145,-35 -195,-95 12.5,-17.5 -22.5,-32.5 7.5,-40 30,-7.5 52.5,-17.5 62.5,2.5 10,20 11.37,44.33 21.37,29.33 10,-15 18.62,-20.26 11.12,-30.26 -7.5,-10 -14.99,-56.58 -29.99,-41.58 -15,15 -35,32.51 -57.5,20.01 -22.5,-12.51 -15,-35.01 -25,-35.01 -10,0 -20,30 -32.5,10 -12.5,-20 -22.5,-22.5 -15,-45 7.5,-22.5 17.5,-47.5 0,-55 -17.5,-7.5 -40,2.5 -45,-17.5 -5,-20 -7.5,-52.5 10,-57.5 17.5,-5 62.5,-5 70,22.5 7.5,27.5 0,45 22.5,45 22.5,0 35,-2.5 45,-12.5 10,-10 8.68,-21.46 6.18,-33.96 -2.5,-12.5 -15.96,-17.06 -3.68,-26.04 20.88,-15.24 42.5,45 50,35 7.5,-10 0,-17.5 10,-27.5 10,-10 12.5,-7.5 12.5,-25 0,-17.5 7.5,-22.5 7.5,-22.5 0,0 685.05,-141.37 722.55,-146.37 37.5,-5 34.95,61.37 19.95,73.87 -15,12.5 -25,22.5 -30,42.5 -5,20 -25,70 -7.5,65 17.5,-5 27.5,-20 35,-45 7.5,-25 0,-47.5 15,-52.5 15,-5 32.5,27.5 47.5,35 15,7.5 37.5,2.5 52.5,15 15,12.5 12.5,45 -12.5,55 -25,10 -47.5,-12.5 -62.5,-22.5 -15,-10 -35,-12.5 -35,5 0,17.5 -5,60 17.5,75 22.5,15 45,32.5 42.5,47.5 -2.5,15 -90,162.51 -395,260.01 2.5,-15 32.5,-35 -17.5,-47.5 -50,-12.5 -242.5,-30 -325,40"
       style="fill:#231f20;fill-opacity:1;fill-rule:nonzero;stroke:none"
       transform="matrix(0.13333333,0,0,-0.13333333,0,455.77333)" />
    <path
       id="path68"
       d="m 2698.28,1921.98 c 0,0 -145,-35 -195,-95 12.5,-17.5 -22.5,-32.5 7.5,-40 30,-7.5 52.5,-17.5 62.5,2.5 10,20 11.37,44.33 21.37,29.33 10,-15 18.62,-20.26 11.12,-30.26 -7.5,-10 -14.99,-56.58 -29.99,-41.58 -15,15 -35,32.51 -57.5,20.01 -22.5,-12.51 -15,-35.01 -25,-35.01 -10,0 -20,30 -32.5,10 -12.5,-20 -22.5,-22.5 -15,-45 7.5,-22.5 17.5,-47.5 0,-55 -17.5,-7.5 -40,2.5 -45,-17.5 -5,-20 -7.5,-52.5 10,-57.5 17.5,-5 62.5,-5 70,22.5 7.5,27.5 0,45 22.5,45 22.5,0 35,-2.5 45,-12.5 10,-10 8.68,-21.46 6.18,-33.96 -2.5,-12.5 -15.96,-17.06 -3.68,-26.04 20.88,-15.24 42.5,45 50,35 7.5,-10 0,-17.5 10,-27.5 10,-10 12.5,-7.5 12.5,-25 0,-17.5 7.5,-22.5 7.5,-22.5 0,0 685.05,-141.37 722.55,-146.37 37.5,-5 34.95,61.37 19.95,73.87 -15,12.5 -25,22.5 -30,42.5 -5,20 -25,70 -7.5,65 17.5,-5 27.5,-20 35,-45 7.5,-25 0,-47.5 15,-52.5 15,-5 32.5,27.5 47.5,35 15,7.5 37.5,2.5 52.5,15 15,12.5 12.5,45 -12.5,55 -25,10 -47.5,-12.5 -62.5,-22.5 -15,-10 -35,-12.5 -35,5 0,17.5 -5,60 17.5,75 22.5,15 45,32.5 42.5,47.5 -2.5,15 -90,162.51 -395,260.01 2.5,-15 32.5,-35 -17.5,-47.5 -50,-12.5 -242.5,-30 -325,40 z"
       style="fill:none;stroke:#231f20;stroke-width:8.504;stroke-linecap:butt;stroke-linejoin:miter;stroke-miterlimit:4;stroke-dasharray:none;stroke-opacity:1"
       transform="matrix(0.13333333,0,0,-0.13333333,0,455.77333)" />
    <path
       id="path69"
       d="m 2565.64,1511.46 c 0,0 -39.86,53.01 -102.36,43.01 -62.5,-10 -82.77,-33.08 -90.27,-45.58 -7.5,-12.5 117.63,-7.43 192.63,2.57"
       style="fill:#231f20;fill-opacity:1;fill-rule:nonzero;stroke:none"
       transform="matrix(0.13333333,0,0,-0.13333333,0,455.77333)" />
    <path
       id="path70"
       d="m 2565.64,1511.46 c 0,0 -39.86,53.01 -102.36,43.01 -62.5,-10 -82.77,-33.08 -90.27,-45.58 -7.5,-12.5 117.63,-7.43 192.63,2.57 z"
       style="fill:none;stroke:#231f20;stroke-width:8.504;stroke-linecap:butt;stroke-linejoin:miter;stroke-miterlimit:4;stroke-dasharray:none;stroke-opacity:1"
       transform="matrix(0.13333333,0,0,-0.13333333,0,455.77333)" />
    <path
       id="path71"
       d="m 2804.68,1648.2 c -26.13,-19.64 -21.49,-24.94 -13.76,-31.81 7.75,-6.89 6.02,-12.05 16.34,-4.3 10.32,7.73 18.06,16.34 13.76,21.49 -4.3,5.16 -12.9,17.2 -16.34,14.62"
       style="fill:#ffffff;fill-opacity:1;fill-rule:nonzero;stroke:none"
       transform="matrix(0.13333333,0,0,-0.13333333,0,455.77333)" />
    <path
       id="path72"
       d="m 2804.68,1648.2 c -26.13,-19.64 -21.49,-24.94 -13.76,-31.81 7.75,-6.89 6.02,-12.05 16.34,-4.3 10.32,7.73 18.06,16.34 13.76,21.49 -4.3,5.16 -12.9,17.2 -16.34,14.62 z"
       style="fill:none;stroke:#ffffff;stroke-width:8.504;stroke-linecap:butt;stroke-linejoin:miter;stroke-miterlimit:4;stroke-dasharray:none;stroke-opacity:1"
       transform="matrix(0.13333333,0,0,-0.13333333,0,455.77333)" />
    <path
       id="path73"
       d="m 2827.05,1600.04 c 0,0 -32.68,-7.74 -15.48,-20.64 17.19,-12.9 15.48,-6.88 19.77,-1.72 4.3,5.17 -2.58,24.94 -2.58,24.94"
       style="fill:#ffffff;fill-opacity:1;fill-rule:nonzero;stroke:#ffffff;stroke-width:8.504;stroke-linecap:butt;stroke-linejoin:miter;stroke-miterlimit:4;stroke-dasharray:none;stroke-opacity:1"
       transform="matrix(0.13333333,0,0,-0.13333333,0,455.77333)" />
    <path
       id="path74"
       d="m 2834.78,1561.35 c 0,0 -17.2,-0.86 -16.34,-12.04 0.86,-11.19 0,-17.2 6.03,-14.62 6.01,2.57 3.43,6.02 12.03,10.32 8.6,4.3 -1.72,16.34 -1.72,16.34"
       style="fill:#ffffff;fill-opacity:1;fill-rule:nonzero;stroke:none"
       transform="matrix(0.13333333,0,0,-0.13333333,0,455.77333)" />
    <path
       id="path75"
       d="m 2834.78,1561.35 c 0,0 -17.2,-0.86 -16.34,-12.04 0.86,-11.19 0,-17.2 6.03,-14.62 6.01,2.57 3.43,6.02 12.03,10.32 8.6,4.3 -1.72,16.34 -1.72,16.34 z"
       style="fill:none;stroke:#ffffff;stroke-width:8.504;stroke-linecap:butt;stroke-linejoin:miter;stroke-miterlimit:4;stroke-dasharray:none;stroke-opacity:1"
       transform="matrix(0.13333333,0,0,-0.13333333,0,455.77333)" />
    <path
       id="path76"
       d="m 2688.6,1649.92 c 0,0 -26.66,-18.06 -19.79,-23.22 6.89,-5.16 7.75,-7.74 16.34,0 8.6,7.74 7.75,9.46 18.07,10.32 10.31,0.86 11.18,-2.58 15.48,-10.32 4.29,-7.74 6.01,-15.47 13.76,-14.61 7.73,0.86 12.89,3.44 3.43,13.75 -9.46,10.32 -21.5,14.63 -19.78,23.22 1.73,8.6 -3.44,18.06 -9.45,11.17 -6.03,-6.87 -18.06,-7.73 -18.06,-7.73"
       style="fill:#ffffff;fill-opacity:1;fill-rule:nonzero;stroke:none"
       transform="matrix(0.13333333,0,0,-0.13333333,0,455.77333)" />
    <path
       id="path77"
       d="m 2641.29,1598.32 c 0,0 -14.61,0 -12.89,-11.17 1.72,-11.18 -4.3,-13.76 3.44,-19.79 7.74,-6.01 2.58,-11.17 7.74,-19.77 5.16,-8.61 7.74,-6.89 19.78,-13.76 12.03,-6.88 18.92,-11.17 31.82,-9.46 12.9,1.72 15.48,12.04 8.59,11.18 -6.87,-0.86 -24.94,3.43 -20.63,9.46 4.29,6.02 2.57,9.46 14.61,13.76 12.05,4.3 10.33,18.05 0.86,20.63 -9.46,2.59 -25.8,-0.86 -26.66,-7.74 -0.86,-6.88 -6.87,-19.77 -14.62,-10.31 -7.73,9.45 -6.88,29.23 -5.15,32.67 1.72,3.44 -6.89,4.3 -6.89,4.3"
       style="fill:#ffffff;fill-opacity:1;fill-rule:nonzero;stroke:none"
       transform="matrix(0.13333333,0,0,-0.13333333,0,455.77333)" />
    <path
       id="path78"
       d="m 2641.29,1598.32 c 0,0 -14.61,0 -12.89,-11.17 1.72,-11.18 -4.3,-13.76 3.44,-19.79 7.74,-6.01 2.58,-11.17 7.74,-19.77 5.16,-8.61 7.74,-6.89 19.78,-13.76 12.03,-6.88 18.92,-11.17 31.82,-9.46 12.9,1.72 15.48,12.04 8.59,11.18 -6.87,-0.86 -24.94,3.43 -20.63,9.46 4.29,6.02 2.57,9.46 14.61,13.76 12.05,4.3 10.33,18.05 0.86,20.63 -9.46,2.59 -25.8,-0.86 -26.66,-7.74 -0.86,-6.88 -6.87,-19.77 -14.62,-10.31 -7.73,9.45 -6.88,29.23 -5.15,32.67 1.72,3.44 -6.89,4.3 -6.89,4.3 z"
       style="fill:none;stroke:#ffffff;stroke-width:8.504;stroke-linecap:butt;stroke-linejoin:miter;stroke-miterlimit:4;stroke-dasharray:none;stroke-opacity:1"
       transform="matrix(0.13333333,0,0,-0.13333333,0,455.77333)" />
    <path
       id="path79"
       d="m 2663.28,2168.23 c 0,0 117.5,-183.75 -3.75,-323.75 28.22,-13.11 25,23.75 48.75,13.75 23.75,-10 26.25,-11.25 41.25,-23.75 15,-12.5 10,20 31.25,21.25 21.25,1.25 23.75,-12.5 38.75,-17.5 15,-5 16.25,15 -1.25,28.75 -17.5,13.75 -37.5,2.5 -61.25,78.75 -23.75,76.25 -35,232.5 -28.75,256.25 -46.25,-20 -65,-33.75 -65,-33.75"
       style="fill:#ffffff;fill-opacity:1;fill-rule:nonzero;stroke:none"
       transform="matrix(0.13333333,0,0,-0.13333333,0,455.77333)" />
    <path
       id="path80"
       d="m 2663.28,2168.23 c 0,0 117.5,-183.75 -3.75,-323.75 28.22,-13.11 25,23.75 48.75,13.75 23.75,-10 26.25,-11.25 41.25,-23.75 15,-12.5 10,20 31.25,21.25 21.25,1.25 23.75,-12.5 38.75,-17.5 15,-5 16.25,15 -1.25,28.75 -17.5,13.75 -37.5,2.5 -61.25,78.75 -23.75,76.25 -35,232.5 -28.75,256.25 -46.25,-20 -65,-33.75 -65,-33.75 z"
       style="fill:none;stroke:#231f20;stroke-width:28.346;stroke-linecap:butt;stroke-linejoin:miter;stroke-miterlimit:4;stroke-dasharray:none;stroke-opacity:1"
       transform="matrix(0.13333333,0,0,-0.13333333,0,455.77333)" />
    <path
       id="path81"
       d="m 2285.78,3215.73 c 0,0 76.25,-18.75 112.5,-71.25 36.25,-52.5 58.75,-71.25 108.75,-161.25 50,-90 82.72,-139.73 173.77,-162.9 88.73,-22.58 207.48,-8.35 294.98,52.9 87.5,61.25 217.5,165 245,177.5 27.5,12.5 163.98,97.04 300,57.5 113.44,-32.99 197.5,-91.25 242.5,-271.25 17.5,-112.5 32.5,-225 -20,-360 -40,-77.5 -57.5,-105 -58.75,-91.25 0,0 -8.75,32.5 -15,22.5 -6.25,-10 -46.25,-212.5 -148.75,-278.75 15,52.5 208.75,421.25 35,650 3.95,-43.56 13.88,-68.39 13.88,-88.26 0,-7.9 -3.31,-359.19 -71.17,-392.29 0,38.07 -15.21,38.05 -28.96,16.8 -13.75,-21.25 -43.87,-79.7 -120.01,-96.25 8.75,43.75 114.25,170.87 69.52,309.53 -26.44,-42.66 -56.28,-9.93 -52.01,-123.28 -46.25,-73.75 -44,-133.28 -183.75,-197.5 -22.46,16.21 14.66,46.28 32.16,67.53 17.5,21.25 -35.91,6.22 -48.41,1.22 -12.5,-5 22.5,38.75 3.75,36.25 -18.75,-2.5 -68.75,-20 -76.25,-33.75 -20,3.75 11.67,45.93 13.32,59.18 -54.62,-1.66 -37.07,13.32 -37.07,50.82 -23.75,-21.25 -38.6,-52.92 -47.35,-49.17 -8.75,3.75 9.85,67.92 -6.4,65.42 -16.25,-2.5 -32.91,-56.16 -31.66,-78.66 -11.25,-13.75 -18.34,2.41 -28.34,26.16 -10,23.75 -12.5,21.25 -18.75,5 -6.25,-16.25 -100.4,-105.78 -83.75,-77.5 49.72,84.41 -32.6,9.15 -36.35,1.65 14.9,56.28 -13.65,34.6 -38.65,12.1 -15,10 -7.5,60 7.5,83.75 0,25 -17.5,37.5 -47.5,-28.75 -17.5,20 -38.75,36.25 -38.75,12.5 0,-23.75 -6.25,-37.5 22.5,-105 11.25,-76.25 -3.75,-91.25 -16.25,-103.75 -12.5,-12.5 -26.25,1.25 -53.75,26.25 -27.5,25 -187.5,182.5 -230,206.25 -42.5,23.75 -172.5,43.75 -235,131.25 -62.5,87.5 -138.75,205 -70,402.5 6.25,36.25 27.5,66.25 27.5,103.75 9.06,59.08 -4.01,197.15 140,192.5"
       style="fill:#ffffff;fill-opacity:1;fill-rule:nonzero;stroke:none"
       transform="matrix(0.13333333,0,0,-0.13333333,0,455.77333)" />
    <path
       id="path82"
       d="m 2285.78,3215.73 c 0,0 76.25,-18.75 112.5,-71.25 36.25,-52.5 58.75,-71.25 108.75,-161.25 50,-90 82.72,-139.73 173.77,-162.9 88.73,-22.58 207.48,-8.35 294.98,52.9 87.5,61.25 217.5,165 245,177.5 27.5,12.5 163.98,97.04 300,57.5 113.44,-32.99 197.5,-91.25 242.5,-271.25 17.5,-112.5 32.5,-225 -20,-360 -40,-77.5 -57.5,-105 -58.75,-91.25 0,0 -8.75,32.5 -15,22.5 -6.25,-10 -46.25,-212.5 -148.75,-278.75 15,52.5 208.75,421.25 35,650 3.95,-43.56 13.88,-68.39 13.88,-88.26 0,-7.9 -3.31,-359.19 -71.17,-392.29 0,38.07 -15.21,38.05 -28.96,16.8 -13.75,-21.25 -43.87,-79.7 -120.01,-96.25 8.75,43.75 114.25,170.87 69.52,309.53 -26.44,-42.66 -56.28,-9.93 -52.01,-123.28 -46.25,-73.75 -44,-133.28 -183.75,-197.5 -22.46,16.21 14.66,46.28 32.16,67.53 17.5,21.25 -35.91,6.22 -48.41,1.22 -12.5,-5 22.5,38.75 3.75,36.25 -18.75,-2.5 -68.75,-20 -76.25,-33.75 -20,3.75 11.67,45.93 13.32,59.18 -54.62,-1.66 -37.07,13.32 -37.07,50.82 -23.75,-21.25 -38.6,-52.92 -47.35,-49.17 -8.75,3.75 9.85,67.92 -6.4,65.42 -16.25,-2.5 -32.91,-56.16 -31.66,-78.66 -11.25,-13.75 -18.34,2.41 -28.34,26.16 -10,23.75 -12.5,21.25 -18.75,5 -6.25,-16.25 -100.4,-105.78 -83.75,-77.5 49.72,84.41 -32.6,9.15 -36.35,1.65 14.9,56.28 -13.65,34.6 -38.65,12.1 -15,10 -7.5,60 7.5,83.75 0,25 -17.5,37.5 -47.5,-28.75 -17.5,20 -38.75,36.25 -38.75,12.5 0,-23.75 -6.25,-37.5 22.5,-105 11.25,-76.25 -3.75,-91.25 -16.25,-103.75 -12.5,-12.5 -26.25,1.25 -53.75,26.25 -27.5,25 -187.5,182.5 -230,206.25 -42.5,23.75 -172.5,43.75 -235,131.25 -62.5,87.5 -138.75,205 -70,402.5 6.25,36.25 27.5,66.25 27.5,103.75 9.06,59.08 -4.01,197.15 140,192.5 z"
       style="fill:none;stroke:#231f20;stroke-width:28.346;stroke-linecap:butt;stroke-linejoin:miter;stroke-miterlimit:4;stroke-dasharray:none;stroke-opacity:1"
       transform="matrix(0.13333333,0,0,-0.13333333,0,455.77333)" />
    <path
       id="path83"
       d="m 3455.78,1346.97 c 0,0 -457.5,170 -907.5,165 -478.03,-5.31 -958.92,-144.87 -990,-172.5 -22.5,-20 -22.5,-32.5 -2.5,-42.5 20,-10 122.5,-17.5 102.5,-77.5 -20,-60 -57.5,-72.5 -80,-75 -22.5,-2.5 -30,-45 -20,-50 10,-5 70,-2.5 187.5,47.5 142.5,45 455.46,129.47 731.74,114.88 192.5,-5 513.26,5.12 930.76,-149.88 47.5,-12.5 40,30 25,35 -15,5 -70,47.5 -72.5,85 15,42.5 42.5,72.5 57.5,72.5 15,0 70,0 37.5,47.5"
       style="fill:#ffffff;fill-opacity:1;fill-rule:nonzero;stroke:none"
       transform="matrix(0.13333333,0,0,-0.13333333,0,455.77333)" />
    <path
       id="path84"
       d="m 3455.78,1346.97 c 0,0 -457.5,170 -907.5,165 -478.03,-5.31 -958.92,-144.87 -990,-172.5 -22.5,-20 -22.5,-32.5 -2.5,-42.5 20,-10 122.5,-17.5 102.5,-77.5 -20,-60 -57.5,-72.5 -80,-75 -22.5,-2.5 -30,-45 -20,-50 10,-5 70,-2.5 187.5,47.5 142.5,45 455.46,129.47 731.74,114.88 192.5,-5 513.26,5.12 930.76,-149.88 47.5,-12.5 40,30 25,35 -15,5 -70,47.5 -72.5,85 15,42.5 42.5,72.5 57.5,72.5 15,0 70,0 37.5,47.5 z"
       style="fill:none;stroke:#231f20;stroke-width:28.346;stroke-linecap:butt;stroke-linejoin:miter;stroke-miterlimit:4;stroke-dasharray:none;stroke-opacity:1"
       transform="matrix(0.13333333,0,0,-0.13333333,0,455.77333)" />
    <path
       id="path85"
       d="m 289.879,1257.92 c 0,0 184.285,-130.19 400.691,6.77 32.121,-49.04 43.957,-71.02 43.957,-71.02 0,0 -198.125,-198.65 -131.367,-204.221 -101.441,8.461 -243.965,45.291 -380.91,197.461 37.199,-6.75 93.414,-25.82 114.973,-30.43 23.668,-5.08 -67.629,47.34 -47.344,101.44"
       style="fill:#ffffff;fill-opacity:1;fill-rule:nonzero;stroke:none"
       transform="matrix(0.13333333,0,0,-0.13333333,0,455.77333)" />
    <path
       id="path86"
       d="m 289.879,1257.92 c 0,0 184.285,-130.19 400.691,6.77 32.121,-49.04 43.957,-71.02 43.957,-71.02 0,0 -198.125,-198.65 -131.367,-204.221 -101.441,8.461 -243.965,45.291 -380.91,197.461 37.199,-6.75 93.414,-25.82 114.973,-30.43 23.668,-5.08 -67.629,47.34 -47.344,101.44 z"
       style="fill:none;stroke:#231f20;stroke-width:28.346;stroke-linecap:butt;stroke-linejoin:miter;stroke-miterlimit:4;stroke-dasharray:none;stroke-opacity:1"
       transform="matrix(0.13333333,0,0,-0.13333333,0,455.77333)" />
    <path
       id="path87"
       d="m 330.453,1161.55 c 0,0 158.926,-82.84 338.137,16.91"
       style="fill:#ffffff;fill-opacity:1;fill-rule:nonzero;stroke:#231f20;stroke-width:28.346;stroke-linecap:butt;stroke-linejoin:miter;stroke-miterlimit:4;stroke-dasharray:none;stroke-opacity:1"
       transform="matrix(0.13333333,0,0,-0.13333333,0,455.77333)" />
    <path
       id="path88"
       d="m 366.43,1360.37 c 1.066,-2.13 19.738,-47.46 19.738,-47.46 l 43.203,46.4 -62.941,1.06"
       style="fill:#231f20;fill-opacity:1;fill-rule:nonzero;stroke:none"
       transform="matrix(0.13333333,0,0,-0.13333333,0,455.77333)" />
    <path
       id="path89"
       d="m 366.43,1360.37 c 1.066,-2.13 19.738,-47.46 19.738,-47.46 l 43.203,46.4 z"
       style="fill:none;stroke:#231f20;stroke-width:8.504;stroke-linecap:butt;stroke-linejoin:miter;stroke-miterlimit:4;stroke-dasharray:none;stroke-opacity:1"
       transform="matrix(0.13333333,0,0,-0.13333333,0,455.77333)" />
    <path
       id="path90"
       d="m 454.438,1359.84 1.066,-47.48 49.598,46.95 -50.664,0.53"
       style="fill:#231f20;fill-opacity:1;fill-rule:nonzero;stroke:none"
       transform="matrix(0.13333333,0,0,-0.13333333,0,455.77333)" />
    <path
       id="path91"
       d="m 454.438,1359.84 1.066,-47.48 49.598,46.95 z"
       style="fill:none;stroke:#231f20;stroke-width:8.504;stroke-linecap:butt;stroke-linejoin:miter;stroke-miterlimit:4;stroke-dasharray:none;stroke-opacity:1"
       transform="matrix(0.13333333,0,0,-0.13333333,0,455.77333)" />
    <path
       id="path92"
       d="m 529.105,1360.37 0.536,-48.54 50.129,47.48 -50.665,1.06"
       style="fill:#231f20;fill-opacity:1;fill-rule:nonzero;stroke:none"
       transform="matrix(0.13333333,0,0,-0.13333333,0,455.77333)" />
    <path
       id="path93"
       d="m 529.105,1360.37 0.536,-48.54 50.129,47.48 z"
       style="fill:none;stroke:#231f20;stroke-width:8.504;stroke-linecap:butt;stroke-linejoin:miter;stroke-miterlimit:4;stroke-dasharray:none;stroke-opacity:1"
       transform="matrix(0.13333333,0,0,-0.13333333,0,455.77333)" />
    <path
       id="path94"
       d="m 425.777,1574.47 c 0,0 -37.839,-68.03 -70,-112.5 31.25,-2.5 37.5,1.25 37.5,1.25 0,0 13.75,28.75 21.25,21.25 7.5,-7.5 25,-8.75 25,-8.75 l 2.5,33.75 h 17.5 l -5,12.5 -12.5,1.25 v 50 l -16.25,1.25"
       style="fill:#231f20;fill-opacity:1;fill-rule:nonzero;stroke:none"
       transform="matrix(0.13333333,0,0,-0.13333333,0,455.77333)" />
    <path
       id="path95"
       d="m 425.777,1574.47 c 0,0 -37.839,-68.03 -70,-112.5 31.25,-2.5 37.5,1.25 37.5,1.25 0,0 13.75,28.75 21.25,21.25 7.5,-7.5 25,-8.75 25,-8.75 l 2.5,33.75 h 17.5 l -5,12.5 -12.5,1.25 v 50 z"
       style="fill:none;stroke:#231f20;stroke-width:8.504;stroke-linecap:butt;stroke-linejoin:miter;stroke-miterlimit:4;stroke-dasharray:none;stroke-opacity:1"
       transform="matrix(0.13333333,0,0,-0.13333333,0,455.77333)" />
    <path
       id="path96"
       d="m 519.527,1573.22 c 0,0 23.75,-51.25 16.25,-55 -7.5,-3.75 -12.5,-13.75 -17.5,-2.5 -5,11.25 -13.75,12.5 -13.75,12.5 l 2.5,-40 13.75,-20 20,-3.75 c 0,0 -1.25,40 26.25,5 15,-11.25 40,-5 40,-5 l -70,108.75 h -17.5"
       style="fill:#231f20;fill-opacity:1;fill-rule:nonzero;stroke:none"
       transform="matrix(0.13333333,0,0,-0.13333333,0,455.77333)" />
    <path
       id="path97"
       d="m 519.527,1573.22 c 0,0 23.75,-51.25 16.25,-55 -7.5,-3.75 -12.5,-13.75 -17.5,-2.5 -5,11.25 -13.75,12.5 -13.75,12.5 l 2.5,-40 13.75,-20 20,-3.75 c 0,0 -1.25,40 26.25,5 15,-11.25 40,-5 40,-5 l -70,108.75 z"
       style="fill:none;stroke:#231f20;stroke-width:8.504;stroke-linecap:butt;stroke-linejoin:miter;stroke-miterlimit:4;stroke-dasharray:none;stroke-opacity:1"
       transform="matrix(0.13333333,0,0,-0.13333333,0,455.77333)" />
    <path
       id="path98"
       d="m 405.074,1623.92 148.254,-0.7 v -48.94 l -148.254,0.7 v 48.94"
       style="fill:#231f20;fill-opacity:1;fill-rule:nonzero;stroke:none"
       transform="matrix(0.13333333,0,0,-0.13333333,0,455.77333)" />
    <path
       id="path99"
       d="m 405.074,1623.92 148.254,-0.7 v -48.94 l -148.254,0.7 z"
       style="fill:none;stroke:#231f20;stroke-width:8.504;stroke-linecap:butt;stroke-linejoin:miter;stroke-miterlimit:4;stroke-dasharray:none;stroke-opacity:1"
       transform="matrix(0.13333333,0,0,-0.13333333,0,455.77333)" />
    <path
       id="path100"
       d="m 468.277,1548.22 3.75,-82.5 c 0,0 11.25,20 17.5,28.75 6.25,8.75 -21.25,53.75 -21.25,53.75"
       style="fill:#231f20;fill-opacity:1;fill-rule:nonzero;stroke:none"
       transform="matrix(0.13333333,0,0,-0.13333333,0,455.77333)" />
    <path
       id="path101"
       d="m 468.277,1548.22 3.75,-82.5 c 0,0 11.25,20 17.5,28.75 6.25,8.75 -21.25,53.75 -21.25,53.75 z"
       style="fill:none;stroke:#231f20;stroke-width:8.504;stroke-linecap:butt;stroke-linejoin:miter;stroke-miterlimit:4;stroke-dasharray:none;stroke-opacity:1"
       transform="matrix(0.13333333,0,0,-0.13333333,0,455.77333)" />
    <path
       id="path102"
       d="m 578.988,1247.77 -32.129,-126.79 -145.394,6.75 -35.504,152.17 h 219.785 l -6.758,-32.13"
       style="fill:#918f90;fill-opacity:1;fill-rule:nonzero;stroke:none"
       transform="matrix(0.13333333,0,0,-0.13333333,0,455.77333)" />
    <path
       id="path103"
       d="m 372.832,1278.77 c 0,0 33.512,-143.6 28.633,-135.82"
       style="fill:none;stroke:#231f20;stroke-width:28.346;stroke-linecap:butt;stroke-linejoin:miter;stroke-miterlimit:4;stroke-dasharray:none;stroke-opacity:1"
       transform="matrix(0.13333333,0,0,-0.13333333,0,455.77333)" />
    <path
       id="path104"
       d="m 418.277,1276.97 23.75,-147.5"
       style="fill:none;stroke:#231f20;stroke-width:28.346;stroke-linecap:butt;stroke-linejoin:miter;stroke-miterlimit:4;stroke-dasharray:none;stroke-opacity:1"
       transform="matrix(0.13333333,0,0,-0.13333333,0,455.77333)" />
    <path
       id="path105"
       d="m 480.777,1276.97 2.5,-157.5"
       style="fill:none;stroke:#231f20;stroke-width:28.346;stroke-linecap:butt;stroke-linejoin:miter;stroke-miterlimit:4;stroke-dasharray:none;stroke-opacity:1"
       transform="matrix(0.13333333,0,0,-0.13333333,0,455.77333)" />
    <path
       id="path106"
       d="m 539.527,1276.97 -27.5,-156.25"
       style="fill:none;stroke:#231f20;stroke-width:28.346;stroke-linecap:butt;stroke-linejoin:miter;stroke-miterlimit:4;stroke-dasharray:none;stroke-opacity:1"
       transform="matrix(0.13333333,0,0,-0.13333333,0,455.77333)" />
    <path
       id="path107"
       d="m 321.625,1360.37 51.207,-81.6 208.008,-0.54 52.805,83.21 -312.02,-1.07"
       style="fill:#918f90;fill-opacity:1;fill-rule:nonzero;stroke:none"
       transform="matrix(0.13333333,0,0,-0.13333333,0,455.77333)" />
    <path
       id="path108"
       d="m 321.625,1360.37 51.207,-81.6 208.008,-0.54 52.805,83.21 z"
       style="fill:none;stroke:#231f20;stroke-width:28.346;stroke-linecap:butt;stroke-linejoin:miter;stroke-miterlimit:4;stroke-dasharray:none;stroke-opacity:1"
       transform="matrix(0.13333333,0,0,-0.13333333,0,455.77333)" />
    <path
       id="path109"
       d="m 398.277,1138.22 v -96.25 c 0,0 118.75,-42.501 155,-43.751 6.25,27.501 1.25,148.751 1.25,148.751 0,0 -12.734,-41.21 -156.25,-8.75"
       style="fill:#231f20;fill-opacity:1;fill-rule:nonzero;stroke:none"
       transform="matrix(0.13333333,0,0,-0.13333333,0,455.77333)" />
    <path
       id="path110"
       d="m 398.277,1138.22 v -96.25 c 0,0 118.75,-42.501 155,-43.751 6.25,27.501 1.25,148.751 1.25,148.751 0,0 -12.734,-41.21 -156.25,-8.75 z"
       style="fill:none;stroke:#231f20;stroke-width:8.504;stroke-linecap:butt;stroke-linejoin:miter;stroke-miterlimit:4;stroke-dasharray:none;stroke-opacity:1"
       transform="matrix(0.13333333,0,0,-0.13333333,0,455.77333)" />
    <path
       id="path111"
       d="m 588.277,991.969 c 237.5,-42.5 558.753,-36.25 806.253,-23.75 291.25,16.25 498.75,116.251 606.25,143.751 -75,-151.251 25,-178.751 86.25,-206.251 -152.5,-176.25 -812.5,-222.5 -812.5,-222.5 0,0 -282.44,-18.59 -471.253,6.25 -150.89,14.769 -273.254,36.39 -372.082,61.472 -285.965,72.59 -374.9098,174.297 -387.9177,223.528 87.4997,-40 106.2497,-25 137.4997,2.5 56.25,95.001 -119.9997,190.001 -119.9997,190.001 0,0 58.7497,20 116.2497,63.75 0,0 172.016,-212.21 411.25,-238.751 239.239,-26.539 239.766,-25.821 239.766,-25.821"
       style="fill:#ffffff;fill-opacity:1;fill-rule:nonzero;stroke:#231f20;stroke-width:28.346;stroke-linecap:round;stroke-linejoin:miter;stroke-miterlimit:4;stroke-dasharray:none;stroke-opacity:1"
       transform="matrix(0.13333333,0,0,-0.13333333,0,455.77333)" />
    <path
       id="path112"
       d="m 580.84,1278.23 c 0,0 -28.981,-134.98 -33.981,-143.73"
       style="fill:none;stroke:#231f20;stroke-width:28.346;stroke-linecap:butt;stroke-linejoin:miter;stroke-miterlimit:4;stroke-dasharray:none;stroke-opacity:1"
       transform="matrix(0.13333333,0,0,-0.13333333,0,455.77333)" />
    <path
       id="path113"
       d="m 176.605,1208.89 c 0,0 40.579,-35.5 81.153,-43.96 28.281,-5.89 -21.981,-52.41 -21.981,-52.41 l -77.769,54.1 18.597,42.27"
       style="fill:#ffffff;fill-opacity:1;fill-rule:nonzero;stroke:none"
       transform="matrix(0.13333333,0,0,-0.13333333,0,455.77333)" />
    <path
       id="path114"
       d="m 176.605,1208.89 c 0,0 40.579,-35.5 81.153,-43.96 28.281,-5.89 -21.981,-52.41 -21.981,-52.41 l -77.769,54.1 z"
       style="fill:none;stroke:#ffffff;stroke-width:28.346;stroke-linecap:butt;stroke-linejoin:miter;stroke-miterlimit:4;stroke-dasharray:none;stroke-opacity:1"
       transform="matrix(0.13333333,0,0,-0.13333333,0,455.77333)" />
    <path
       id="path115"
       d="m 4507.01,1293.28 14.33,-20.07 10.13,-214.88 174.79,97.31 15.82,117.57 15.05,20.79 -230.12,-0.72"
       style="fill:#918f90;fill-opacity:1;fill-rule:nonzero;stroke:none"
       transform="matrix(0.13333333,0,0,-0.13333333,0,455.77333)" />
    <path
       id="path116"
       d="m 4507.01,1293.28 14.33,-20.07 10.13,-214.88 174.79,97.31 15.82,117.57 15.05,20.79 z"
       style="fill:none;stroke:#231f20;stroke-width:28.346;stroke-linecap:butt;stroke-linejoin:miter;stroke-miterlimit:4;stroke-dasharray:none;stroke-opacity:1"
       transform="matrix(0.13333333,0,0,-0.13333333,0,455.77333)" />
    <path
       id="path117"
       d="m 4461.13,1362.1 60.21,-88.89 204.75,3.18 49.75,85 -314.71,0.71"
       style="fill:#918f90;fill-opacity:1;fill-rule:nonzero;stroke:none"
       transform="matrix(0.13333333,0,0,-0.13333333,0,455.77333)" />
    <path
       id="path118"
       d="m 4461.13,1362.1 60.21,-88.89 204.75,3.18 49.75,85 z"
       style="fill:none;stroke:#231f20;stroke-width:28.346;stroke-linecap:butt;stroke-linejoin:miter;stroke-miterlimit:4;stroke-dasharray:none;stroke-opacity:1"
       transform="matrix(0.13333333,0,0,-0.13333333,0,455.77333)" />
    <path
       id="path119"
       d="m 4570.09,1248.84 1.02,-168.88"
       style="fill:none;stroke:#231f20;stroke-width:28.346;stroke-linecap:butt;stroke-linejoin:miter;stroke-miterlimit:4;stroke-dasharray:none;stroke-opacity:1"
       transform="matrix(0.13333333,0,0,-0.13333333,0,455.77333)" />
    <path
       id="path120"
       d="m 4624.58,1251.71 0.59,-142.92"
       style="fill:none;stroke:#231f20;stroke-width:28.346;stroke-linecap:butt;stroke-linejoin:miter;stroke-miterlimit:4;stroke-dasharray:none;stroke-opacity:1"
       transform="matrix(0.13333333,0,0,-0.13333333,0,455.77333)" />
    <path
       id="path121"
       d="m 4671.89,1253.86 -1.67,-121.64"
       style="fill:none;stroke:#231f20;stroke-width:28.346;stroke-linecap:butt;stroke-linejoin:miter;stroke-miterlimit:4;stroke-dasharray:none;stroke-opacity:1"
       transform="matrix(0.13333333,0,0,-0.13333333,0,455.77333)" />
    <path
       id="path122"
       d="m 4517.05,1360.66 48.02,-46.6 1.44,47.33 -49.46,-0.73"
       style="fill:#231f20;fill-opacity:1;fill-rule:nonzero;stroke:none"
       transform="matrix(0.13333333,0,0,-0.13333333,0,455.77333)" />
    <path
       id="path123"
       d="m 4581.57,1360.66 48.02,-50.9 1.44,49.47 -49.46,1.43"
       style="fill:#231f20;fill-opacity:1;fill-rule:nonzero;stroke:none"
       transform="matrix(0.13333333,0,0,-0.13333333,0,455.77333)" />
    <path
       id="path124"
       d="m 4667.59,1360.66 43.02,-47.31 20.78,47.31 h -63.8"
       style="fill:#231f20;fill-opacity:1;fill-rule:nonzero;stroke:none"
       transform="matrix(0.13333333,0,0,-0.13333333,0,455.77333)" />
    <path
       id="path125"
       d="m 4819.59,1157.42 c 0,0 -413.79,-159.279 -373.8,-140.68 39.98,18.59 262.35,139.43 262.35,139.43 l -7.9,-40.24"
       style="fill:#231f20;fill-opacity:1;fill-rule:nonzero;stroke:#231f20;stroke-width:28.346;stroke-linecap:butt;stroke-linejoin:miter;stroke-miterlimit:4;stroke-dasharray:none;stroke-opacity:1"
       transform="matrix(0.13333333,0,0,-0.13333333,0,455.77333)" />
    <path
       id="path126"
       d="m 3599.53,1113.22 c 0,0 -17.5,43.75 -40,46.25 -22.5,2.5 -22.5,-2.5 -41.25,2.5 -18.75,5 -40,28.75 -35,10 5,-18.75 -6.25,-23.75 21.25,-38.75 27.5,-15 27.5,-13.75 33.75,-33.75 6.25,-20 10,-43.75 31.25,-42.5 21.25,1.25 30,7.5 33.75,21.25 3.75,13.75 -3.75,35 -3.75,35"
       style="fill:#231f20;fill-opacity:1;fill-rule:nonzero;stroke:none"
       transform="matrix(0.13333333,0,0,-0.13333333,0,455.77333)" />
    <path
       id="path127"
       d="m 3599.53,1113.22 c 0,0 -17.5,43.75 -40,46.25 -22.5,2.5 -22.5,-2.5 -41.25,2.5 -18.75,5 -40,28.75 -35,10 5,-18.75 -6.25,-23.75 21.25,-38.75 27.5,-15 27.5,-13.75 33.75,-33.75 6.25,-20 10,-43.75 31.25,-42.5 21.25,1.25 30,7.5 33.75,21.25 3.75,13.75 -3.75,35 -3.75,35 z"
       style="fill:none;stroke:#231f20;stroke-width:28.346;stroke-linecap:butt;stroke-linejoin:miter;stroke-miterlimit:4;stroke-dasharray:none;stroke-opacity:1"
       transform="matrix(0.13333333,0,0,-0.13333333,0,455.77333)" />
    <path
       id="path128"
       d="m 3509.53,1085.72 c 0,0 -17.5,-57.5 -37.5,-58.75 -20,-1.25 -23.75,30 -52.5,11.25 -28.75,-18.75 -52.5,-37.5 -53.75,-50.001 -1.25,-12.5 -33.75,-18.75 -7.5,-25 26.25,-6.25 127.5,-23.75 151.25,-26.25 23.75,-2.5 51.25,-22.5 58.75,3.75 7.5,26.25 31.25,71.251 11.25,75.001 -20,3.75 -40,-27.501 -50,-18.751 -10,8.751 -21.25,30.001 -17.5,42.501 3.75,12.5 -2.5,46.25 -2.5,46.25"
       style="fill:#231f20;fill-opacity:1;fill-rule:nonzero;stroke:none"
       transform="matrix(0.13333333,0,0,-0.13333333,0,455.77333)" />
    <path
       id="path129"
       d="m 3509.53,1085.72 c 0,0 -17.5,-57.5 -37.5,-58.75 -20,-1.25 -23.75,30 -52.5,11.25 -28.75,-18.75 -52.5,-37.5 -53.75,-50.001 -1.25,-12.5 -33.75,-18.75 -7.5,-25 26.25,-6.25 127.5,-23.75 151.25,-26.25 23.75,-2.5 51.25,-22.5 58.75,3.75 7.5,26.25 31.25,71.251 11.25,75.001 -20,3.75 -40,-27.501 -50,-18.751 -10,8.751 -21.25,30.001 -17.5,42.501 3.75,12.5 -2.5,46.25 -2.5,46.25 z"
       style="fill:none;stroke:#231f20;stroke-width:28.346;stroke-linecap:butt;stroke-linejoin:miter;stroke-miterlimit:4;stroke-dasharray:none;stroke-opacity:1"
       transform="matrix(0.13333333,0,0,-0.13333333,0,455.77333)" />
    <path
       id="path130"
       d="m 2188.33,3179.61 c 0,0 -40.9,-26.65 -31.37,-65.4 8.87,-36.08 -5.26,-25.63 10.44,-40.79 21.58,-7.31 28.93,18.76 39.61,32.78 10.68,14.01 18.68,20.02 29.36,34.03 10.68,14.02 11.35,25.36 5.34,37.38 -6,12.01 -22.69,16.68 -31.36,14.01 -8.68,-2.67 -22.02,-12.01 -22.02,-12.01"
       style="fill:#ffffff;fill-opacity:1;fill-rule:nonzero;stroke:none"
       transform="matrix(0.13333333,0,0,-0.13333333,0,455.77333)" />
    <path
       id="path131"
       d="m 2188.33,3179.61 c 0,0 -40.9,-26.65 -31.37,-65.4 8.87,-36.08 -5.26,-25.63 10.44,-40.79 21.58,-7.31 28.93,18.76 39.61,32.78 10.68,14.01 18.68,20.02 29.36,34.03 10.68,14.02 11.35,25.36 5.34,37.38 -6,12.01 -22.69,16.68 -31.36,14.01 -8.68,-2.67 -22.02,-12.01 -22.02,-12.01 z"
       style="fill:none;stroke:#231f20;stroke-width:28.346;stroke-linecap:butt;stroke-linejoin:miter;stroke-miterlimit:4;stroke-dasharray:none;stroke-opacity:1"
       transform="matrix(0.13333333,0,0,-0.13333333,0,455.77333)" />
    <path
       id="path132"
       d="m 1826.78,1335.77 -47.95,-13.36 -6.18,22.14 131.23,36.58 6.17,-22.15 -47.95,-13.36 30.71,-110.18 -35.32,-9.85 -30.71,110.18"
       style="fill:#231f20;fill-opacity:1;fill-rule:nonzero;stroke:none"
       transform="matrix(0.13333333,0,0,-0.13333333,0,455.77333)" />
    <path
       id="path133"
       d="m 1941.74,1389.36 36.03,6.81 10.02,-53.03 48.35,9.13 -10.01,53.03 36.03,6.81 25.49,-134.99 -36.03,-6.8 -11.25,59.55 -48.35,-9.13 11.25,-59.56 -36.04,-6.8 -25.49,134.98"
       style="fill:#231f20;fill-opacity:1;fill-rule:nonzero;stroke:none"
       transform="matrix(0.13333333,0,0,-0.13333333,0,455.77333)" />
    <path
       id="path134"
       d="m 2111.82,1419.16 93.18,11.31 2.74,-22.63 -56.77,-6.89 4.03,-33.21 46.59,5.67 2.48,-20.37 -46.59,-5.66 4.56,-37.54 61.29,7.44 2.75,-22.62 -97.7,-11.87 -16.56,136.37"
       style="fill:#231f20;fill-opacity:1;fill-rule:nonzero;stroke:none"
       transform="matrix(0.13333333,0,0,-0.13333333,0,455.77333)" />
    <path
       id="path135"
       d="m 2317.92,1440.45 34.18,1.04 25.07,-92.38 0.38,0.02 18.62,93.71 28.29,0.86 23.36,-92.62 0.38,0.01 19.75,93.94 23.36,0.71 -29.61,-138.33 -34.37,-1.05 -20.78,82.62 -0.37,-0.01 -16.64,-83.77 -34.19,-1.04 -37.43,136.29"
       style="fill:#231f20;fill-opacity:1;fill-rule:nonzero;stroke:none"
       transform="matrix(0.13333333,0,0,-0.13333333,0,455.77333)" />
    <path
       id="path136"
       d="m 2592.33,1446.41 c 44.63,-1.35 73.45,-28.84 72.06,-74.43 -1.4,-45.58 -31.83,-71.07 -76.46,-69.71 -44.62,1.36 -73.63,28.67 -72.25,74.25 1.4,45.58 32.02,71.25 76.65,69.89 z m -3.7,-121.35 c 25.83,-0.78 36.15,26.08 36.82,48.11 0.68,22.03 -7.98,49.67 -33.81,50.45 -26.02,0.8 -36.35,-26.26 -37.02,-48.29 -0.67,-22.03 7.99,-49.47 34.01,-50.27"
       style="fill:#231f20;fill-opacity:1;fill-rule:nonzero;stroke:none"
       transform="matrix(0.13333333,0,0,-0.13333333,0,455.77333)" />
    <path
       id="path137"
       d="m 2705.82,1437.98 65.14,-5.28 c 17.04,-1.37 36.53,-12.67 34.53,-37.29 -1.34,-16.66 -13.38,-31.13 -28.72,-36.94 l 38.8,-67.19 -44.13,3.57 -25.12,57.12 -12.88,1.04 -4.42,-54.73 -34.28,2.77 z m 29.28,-64.51 12.12,-0.98 c 12.69,-1.04 20.6,11.86 21.41,21.9 0.75,9.28 -2.91,15.86 -19.2,17.18 l -11.17,0.91 -3.16,-39.01"
       style="fill:#231f20;fill-opacity:1;fill-rule:nonzero;stroke:none"
       transform="matrix(0.13333333,0,0,-0.13333333,0,455.77333)" />
    <path
       id="path138"
       d="m 2860.28,1424.27 36.39,-4.44 -13.85,-113.73 61.3,-7.47 -2.76,-22.63 -97.7,11.91 16.62,136.36"
       style="fill:#231f20;fill-opacity:1;fill-rule:nonzero;stroke:none"
       transform="matrix(0.13333333,0,0,-0.13333333,0,455.77333)" />
    <path
       id="path139"
       d="m 2992.64,1407.54 73.89,-12.05 c 18.75,-3.06 55.33,-20.77 46.52,-74.78 -7.77,-47.63 -40.13,-65.46 -75.2,-59.73 l -67.32,10.97 z m 17.97,-117.67 c 6.06,-1.77 11.59,-3.24 17.23,-4.16 31.12,-5.08 42.85,17.27 46.55,39.96 3.09,18.94 1.22,45.23 -30.85,50.46 l -18.38,3 -14.55,-89.26"
       style="fill:#231f20;fill-opacity:1;fill-rule:nonzero;stroke:none"
       transform="matrix(0.13333333,0,0,-0.13333333,0,455.77333)" />
    <path
       id="path140"
       d="m 3154.16,1389.16 36,-6.97 -21.13,-61.14 -20.33,3.94 5.46,64.17"
       style="fill:#231f20;fill-opacity:1;fill-rule:nonzero;stroke:none"
       transform="matrix(0.13333333,0,0,-0.13333333,0,455.77333)" />
    <path
       id="path141"
       d="m 3193.17,1260.47 c 10.5,-7.15 22.21,-13.21 34.65,-15.91 9.47,-2.07 22.84,-2.26 25.47,9.8 4.73,21.72 -54.55,36.98 -45.34,79.31 5.87,26.91 32.35,32.42 55.92,27.29 13.37,-2.91 26.38,-7.49 39.03,-12.79 l -5.54,-25.43 c -10.11,6.29 -21.08,12.18 -32.77,14.73 -7.06,1.53 -18.05,1.02 -19.96,-7.72 -4.41,-20.23 57.04,-36.33 47.48,-80.15 -2.94,-13.55 -15.86,-38.93 -63.77,-28.5 -17.26,3.76 -31.56,8.64 -41.03,12.44 l 5.86,26.93"
       style="fill:#231f20;fill-opacity:1;fill-rule:nonzero;stroke:none"
       transform="matrix(0.13333333,0,0,-0.13333333,0,455.77333)" />
    <path
       id="path142"
       d="m 252.004,1011.76 50.785,-20.881 c 21.231,-8.719 30.668,-21.981 21.488,-44.309 -9.304,-22.64 -30.464,-33.429 -55.781,-23.019 l -16.664,6.859 -18.102,-44.031 -28.457,11.691 z m 6.805,-64.381 c 10.539,-4.32 26.464,-9.399 34.156,9.312 4.262,10.379 -2.02,17 -11.293,20.821 -2.988,1.226 -6.176,1.976 -9.414,2.578 l -13.449,-32.711"
       style="fill:#231f20;fill-opacity:1;fill-rule:nonzero;stroke:none"
       transform="matrix(0.13333333,0,0,-0.13333333,0,455.77333)" />
    <path
       id="path143"
       d="m 415.703,954.109 c 38.11,-11.988 56.254,-42.668 44,-81.578 -12.254,-38.922 -44.644,-53.492 -82.75,-41.5 -38.105,12.008 -56.469,42.559 -44.215,81.481 12.258,38.91 44.86,53.597 82.965,41.597 z M 383.074,850.5 c 22.059,-6.949 37.469,13.691 43.391,32.5 5.922,18.809 5.168,44.711 -16.887,51.66 -22.215,6.988 -37.676,-13.808 -43.598,-32.621 -5.921,-18.809 -5.117,-44.551 17.094,-51.539"
       style="fill:#231f20;fill-opacity:1;fill-rule:nonzero;stroke:none"
       transform="matrix(0.13333333,0,0,-0.13333333,0,455.77333)" />
    <path
       id="path144"
       d="m 534.215,917.891 -16.168,-69.379 c -5.25,-22.512 -2.992,-34.563 13.23,-38.34 13.911,-3.242 22.961,3.379 28.125,25.566 l 16.868,72.344 27.812,-6.473 -17.711,-76 c -2.469,-10.589 -11.043,-46.648 -60.387,-35.148 -29.464,6.859 -49.074,26.098 -41.433,58.879 l 17.711,76 31.953,-7.449"
       style="fill:#231f20;fill-opacity:1;fill-rule:nonzero;stroke:none"
       transform="matrix(0.13333333,0,0,-0.13333333,0,455.77333)" />
    <path
       id="path145"
       d="m 636.719,895.48 32.34,-5.55 -17.313,-101.032 54.461,-9.328 -3.441,-20.109 -86.797,14.859 20.75,121.16"
       style="fill:#231f20;fill-opacity:1;fill-rule:nonzero;stroke:none"
       transform="matrix(0.13333333,0,0,-0.13333333,0,455.77333)" />
    <path
       id="path146"
       d="m 755.738,855.84 -44.199,5.519 2.547,20.411 120.953,-15.09 -2.543,-20.41 -44.199,5.511 -12.672,-101.562 -32.559,4.07 12.672,101.551"
       style="fill:#231f20;fill-opacity:1;fill-rule:nonzero;stroke:none"
       transform="matrix(0.13333333,0,0,-0.13333333,0,455.77333)" />
    <path
       id="path147"
       d="m 855.504,865.09 58.344,-4.008 c 15.261,-1.051 32.816,-10.941 31.304,-33 -1.027,-14.922 -11.636,-27.992 -25.297,-33.352 l 35.434,-59.691 -39.519,2.703 -23.09,50.84 -11.532,0.789 -3.371,-49.012 -30.699,2.11 z m 26.898,-57.41 10.856,-0.739 c 11.367,-0.781 18.297,10.84 18.914,19.84 0.57,8.309 -2.777,14.16 -17.363,15.16 l -10.004,0.688 -2.403,-34.949"
       style="fill:#231f20;fill-opacity:1;fill-rule:nonzero;stroke:none"
       transform="matrix(0.13333333,0,0,-0.13333333,0,455.77333)" />
    <path
       id="path148"
       d="m 1007.09,785.582 -40.125,72.008 35.525,-0.668 27.47,-49.152 29.47,48.082 23.8,-0.454 -43.33,-70.429 -0.98,-51.668 -32.8,0.609 0.97,51.672"
       style="fill:#231f20;fill-opacity:1;fill-rule:nonzero;stroke:none"
       transform="matrix(0.13333333,0,0,-0.13333333,0,455.77333)" />
    <path
       id="path149"
       d="m 1168.49,759.18 c 10.74,-3.711 22.28,-6.18 33.65,-5.61 8.66,0.45 20.25,3.418 19.69,14.461 -1.01,19.86 -55.79,19.11 -57.76,57.821 -1.26,24.617 20.31,35.589 41.87,36.687 12.22,0.621 24.53,-0.277 36.7,-1.867 l 1.18,-23.262 c -10.2,3.059 -21.05,5.57 -31.74,5.02 -6.46,-0.328 -15.83,-3.36 -15.43,-11.34 0.95,-18.5 57.77,-18 59.82,-58.059 0.63,-12.402 -4.56,-37.34 -48.36,-39.57 -15.8,-0.813 -29.29,0.027 -38.36,1.098 l -1.26,24.621"
       style="fill:#231f20;fill-opacity:1;fill-rule:nonzero;stroke:none"
       transform="matrix(0.13333333,0,0,-0.13333333,0,455.77333)" />
    <path
       id="path150"
       d="m 1379.23,848.539 c -12.09,3.301 -24.55,5.031 -37.07,3.852 -29.62,-2.782 -36.94,-24.821 -34.87,-46.821 2.58,-27.422 18.59,-43.332 46.52,-40.699 11.68,1.098 24.02,6.02 34.21,12.098 l 2.12,-22.52 c -13.45,-5.867 -28.16,-9.301 -45.08,-10.898 -39.78,-3.742 -68.56,17.289 -72.39,57.898 -3.82,40.633 20.52,66.821 60.3,70.571 16.24,1.519 30.4,1.66 44.05,0.05 l 2.21,-23.531"
       style="fill:#231f20;fill-opacity:1;fill-rule:nonzero;stroke:none"
       transform="matrix(0.13333333,0,0,-0.13333333,0,455.77333)" />
    <path
       id="path151"
       d="m 1402.34,876.582 32.54,4.199 15.71,-121.902 -32.54,-4.199 -15.71,121.902"
       style="fill:#231f20;fill-opacity:1;fill-rule:nonzero;stroke:none"
       transform="matrix(0.13333333,0,0,-0.13333333,0,455.77333)" />
    <path
       id="path152"
       d="m 1467.79,885.16 82.92,13.309 3.23,-20.149 -50.53,-8.109 4.74,-29.539 41.46,6.648 2.9,-18.129 -41.46,-6.64 5.36,-33.41 54.55,8.75 3.23,-20.149 -86.95,-13.933 -19.45,121.351"
       style="fill:#231f20;fill-opacity:1;fill-rule:nonzero;stroke:none"
       transform="matrix(0.13333333,0,0,-0.13333333,0,455.77333)" />
    <path
       id="path153"
       d="m 1580.62,903.73 26.83,5.45 65.83,-61.91 0.33,0.07 -14.68,72.301 24.15,4.91 24.47,-120.449 -26.65,-5.422 -66.01,61.89 -0.33,-0.07 14.69,-72.309 -24.15,-4.91 -24.48,120.449"
       style="fill:#231f20;fill-opacity:1;fill-rule:nonzero;stroke:none"
       transform="matrix(0.13333333,0,0,-0.13333333,0,455.77333)" />
    <path
       id="path154"
       d="m 1820.89,932.621 c -12.45,1.469 -25.02,1.34 -37.24,-1.672 -28.88,-7.14 -32.86,-30.008 -27.56,-51.469 6.61,-26.738 24.8,-40.109 52.03,-33.378 11.39,2.808 22.87,9.5 32.04,17.019 l 5.43,-21.941 c -12.44,-7.801 -26.47,-13.371 -42.98,-17.45 -38.78,-9.582 -70.36,6.95 -80.14,46.559 -9.79,39.609 10.41,69.121 49.2,78.699 15.84,3.922 29.82,6.153 43.55,6.571 l 5.67,-22.938"
       style="fill:#231f20;fill-opacity:1;fill-rule:nonzero;stroke:none"
       transform="matrix(0.13333333,0,0,-0.13333333,0,455.77333)" />
    <path
       id="path155"
       d="m 1839.94,963.48 80.74,23.09 5.61,-19.609 -49.2,-14.07 8.23,-28.77 40.37,11.539 5.05,-17.64 -40.37,-11.559 9.3,-32.52 53.12,15.2 5.61,-19.621 -84.66,-24.219 -33.8,118.179"
       style="fill:#231f20;fill-opacity:1;fill-rule:nonzero;stroke:none"
       transform="matrix(0.13333333,0,0,-0.13333333,0,455.77333)" />
    <path
       id="path156"
       d="m 3284.39,900.621 31.25,-10.019 7.29,-131.422 -31.39,10.082 -1.79,33.41 -45.81,14.687 -21.04,-26.089 -20.88,6.699 z m 4.16,-77.211 -2.57,46.531 -29.16,-36.359 31.73,-10.172"
       style="fill:#231f20;fill-opacity:1;fill-rule:nonzero;stroke:none"
       transform="matrix(0.13333333,0,0,-0.13333333,0,455.77333)" />
    <path
       id="path157"
       d="m 3382.93,770.25 c 9.46,-6.328 19.98,-11.66 31.12,-13.988 8.48,-1.782 20.46,-1.864 22.72,8.957 4.08,19.472 -49.08,32.691 -41.12,70.633 5.05,24.117 28.7,29.238 49.83,24.808 11.99,-2.512 23.66,-6.519 35.01,-11.16 l -4.77,-22.789 c -9.09,5.551 -18.95,10.738 -29.43,12.937 -6.32,1.332 -16.16,0.782 -17.8,-7.039 -3.8,-18.14 51.28,-32.109 43.06,-71.379 -2.55,-12.152 -13.93,-34.941 -56.86,-25.949 -15.48,3.239 -28.3,7.5 -36.8,10.84 l 5.04,24.129"
       style="fill:#231f20;fill-opacity:1;fill-rule:nonzero;stroke:none"
       transform="matrix(0.13333333,0,0,-0.13333333,0,455.77333)" />
    <path
       id="path158"
       d="m 3523.78,743.219 c 9.93,-5.547 20.83,-10.02 32.13,-11.449 8.61,-1.098 20.54,-0.219 21.94,10.742 2.51,19.726 -51.54,28.668 -46.64,67.117 3.11,24.449 26.28,31.441 47.69,28.723 12.15,-1.551 24.09,-4.614 35.79,-8.332 l -2.94,-23.11 c -9.5,4.82 -19.73,9.199 -30.36,10.551 -6.41,0.82 -16.18,-0.512 -17.19,-8.441 -2.33,-18.379 53.69,-27.911 48.63,-67.7 -1.58,-12.32 -11.1,-35.949 -54.6,-30.41 -15.69,1.988 -28.81,5.199 -37.56,7.86 l 3.11,24.449"
       style="fill:#231f20;fill-opacity:1;fill-rule:nonzero;stroke:none"
       transform="matrix(0.13333333,0,0,-0.13333333,0,455.77333)" />
    <path
       id="path159"
       d="m 3735.23,825.281 c 39.91,-1.66 65.42,-26.531 63.73,-67.301 -1.69,-40.761 -29.17,-63.269 -69.08,-61.609 -39.92,1.649 -65.61,26.359 -63.92,67.129 1.7,40.77 29.35,63.43 69.27,61.781 z m -4.51,-108.531 c 23.1,-0.961 32.61,22.98 33.43,42.672 0.81,19.707 -6.66,44.508 -29.77,45.476 -23.27,0.973 -32.77,-23.136 -33.59,-42.839 -0.82,-19.707 6.67,-44.348 29.93,-45.309"
       style="fill:#231f20;fill-opacity:1;fill-rule:nonzero;stroke:none"
       transform="matrix(0.13333333,0,0,-0.13333333,0,455.77333)" />
    <path
       id="path160"
       d="m 3959.4,800.23 c -11.91,3.911 -24.27,6.27 -36.84,5.731 -29.71,-1.289 -38.13,-22.93 -37.17,-45.012 1.19,-27.508 16.38,-44.211 44.4,-42.988 11.72,0.508 24.3,4.789 34.78,10.348 l 0.97,-22.59 c -13.72,-5.18 -28.58,-7.867 -45.56,-8.61 -39.92,-1.738 -67.6,20.711 -69.38,61.473 -1.77,40.758 23.87,65.707 63.78,67.43 16.3,0.718 30.45,0.136 43.99,-2.16 l 1.03,-23.622"
       style="fill:#231f20;fill-opacity:1;fill-rule:nonzero;stroke:none"
       transform="matrix(0.13333333,0,0,-0.13333333,0,455.77333)" />
    <path
       id="path161"
       d="m 4013.99,830.16 32.64,3.41 12.76,-122.242 -32.64,-3.398 -12.76,122.23"
       style="fill:#231f20;fill-opacity:1;fill-rule:nonzero;stroke:none"
       transform="matrix(0.13333333,0,0,-0.13333333,0,455.77333)" />
    <path
       id="path162"
       d="m 4143.96,846.711 32.37,5.348 66.48,-113.598 -32.54,-5.379 -16.84,28.93 -47.46,-7.84 -6.81,-32.82 -21.65,-3.582 z m 38.94,-66.801 -23.53,40.231 -9.35,-45.661 32.88,5.43"
       style="fill:#231f20;fill-opacity:1;fill-rule:nonzero;stroke:none"
       transform="matrix(0.13333333,0,0,-0.13333333,0,455.77333)" />
    <path
       id="path163"
       d="m 4293.66,854.359 -43.39,-10.039 -4.64,20.039 118.76,27.461 4.63,-20.031 -43.39,-10.027 23.06,-99.711 -31.97,-7.391 -23.06,99.699"
       style="fill:#231f20;fill-opacity:1;fill-rule:nonzero;stroke:none"
       transform="matrix(0.13333333,0,0,-0.13333333,0,455.77333)" />
    <path
       id="path164"
       d="m 4412.89,905.609 31.54,9.051 33.9,-118.148 -31.55,-9.043 -33.89,118.14"
       style="fill:#231f20;fill-opacity:1;fill-rule:nonzero;stroke:none"
       transform="matrix(0.13333333,0,0,-0.13333333,0,455.77333)" />
    <path
       id="path165"
       d="m 4559.42,954.711 c 37.76,13.051 70.6,-0.781 83.93,-39.34 13.32,-38.562 -4.02,-69.562 -41.77,-82.609 -37.77,-13.051 -70.71,0.558 -84.04,39.117 -13.33,38.57 4.13,69.781 41.88,82.832 z m 35.49,-102.672 c 21.85,7.551 21.94,33.313 15.51,51.941 -6.45,18.649 -22.49,39.008 -44.33,31.45 -22.01,-7.61 -22.05,-33.532 -15.61,-52.16 6.44,-18.641 22.42,-38.84 44.43,-31.231"
       style="fill:#231f20;fill-opacity:1;fill-rule:nonzero;stroke:none"
       transform="matrix(0.13333333,0,0,-0.13333333,0,455.77333)" />
    <path
       id="path166"
       d="m 4675.35,993.969 25.25,10.561 76.61,-47.948 0.31,0.137 -28.45,68.061 22.74,9.52 47.4,-113.402 -25.09,-10.5 -76.77,47.883 -0.31,-0.133 28.45,-68.07 -22.74,-9.508 -47.4,113.399"
       style="fill:#231f20;fill-opacity:1;fill-rule:nonzero;stroke:none"
       transform="matrix(0.13333333,0,0,-0.13333333,0,455.77333)" />
    <path
       id="path167"
       d="m 324.605,1431.23 h 313.254 v 14.5508 H 324.605 Z"
       style="fill:#918f90;fill-opacity:1;fill-rule:nonzero;stroke:none"
       transform="matrix(0.13333333,0,0,-0.13333333,0,455.77333)" />
    <path
       id="path168"
       d="m 301.488,1375.6 h 359.484 v 35.0898 H 301.488 Z"
       style="fill:#918f90;fill-opacity:1;fill-rule:nonzero;stroke:none"
       transform="matrix(0.13333333,0,0,-0.13333333,0,455.77333)" />
    <path
       id="path169"
       d="m 4474.5,1425.29 h 313.262 v 14.5508 H 4474.5 Z"
       style="fill:#918f90;fill-opacity:1;fill-rule:nonzero;stroke:none"
       transform="matrix(0.13333333,0,0,-0.13333333,0,455.77333)" />
    <path
       id="path170"
       d="m 4451.39,1369.32 h 359.469 v 35.0703 H 4451.39 Z"
       style="fill:#918f90;fill-opacity:1;fill-rule:nonzero;stroke:none"
       transform="matrix(0.13333333,0,0,-0.13333333,0,455.77333)" />
    <path
       id="path171"
       d="M 156.563,125.621 H 45.625 c 0,-18.242 4.1172,-30.9296 12.3477,-38.0624 8.2343,-7.1289 18.9336,-10.6875 32.0859,-10.6875 8.707,0 17.6294,1.1172 26.7574,3.3594 9.129,2.2383 18.528,5.6015 28.184,10.0781 V 63.1211 c -8.324,-4.6328 -17.523,-8.1406 -27.598,-10.5 C 107.328,50.25 95.7188,49.0586 82.5742,49.0586 57.4102,49.0586 37.3594,55.75 22.418,69.1289 7.46875,82.5117 0,102.07 0,127.789 v 11.633 c 0,22.508 6.83203,41.566 20.4922,57.168 13.6641,15.609 33.4922,23.41 59.4922,23.41 24.7656,0 43.7226,-7.328 56.8676,-21.969 13.136,-14.64 19.711,-33.722 19.711,-57.25 0,-8.961 0,-14.019 0,-15.16 z m -42.188,23.129 c -0.945,16.082 -4.469,27.609 -10.562,34.57 -6.0942,6.95 -14.0552,10.43 -23.8872,10.43 -8.5977,0 -16.2735,-3.441 -23.0313,-10.289 C 50.1367,176.59 46.4727,165.02 45.9063,148.75 h 68.4687"
       style="fill:#231f20;fill-opacity:1;fill-rule:nonzero;stroke:none"
       transform="matrix(0.13333333,0,0,-0.13333333,0,455.77333)" />
    <path
       id="path172"
       d="M 334.047,52.5 H 290.492 L 289.359,75 c -6.804,-8.9883 -13.757,-15.3516 -20.847,-19.0781 -7.09,-3.7305 -15.934,-5.6133 -26.52,-5.6133 -16.262,0 -29.828,5.3633 -40.699,16.0898 -10.871,10.7422 -16.309,29.4805 -16.309,56.2426 v 17.031 c 0,24.566 5.813,43.75 17.434,57.5 11.621,13.769 28.773,20.637 51.449,20.637 5.574,0 11.598,-0.758 18.071,-2.258 6.476,-1.531 12.07,-4.641 16.796,-9.371 v 60.379 h 45.313 z M 288.734,98.8203 V 180.09 c -2.156,3.879 -5.3,7.14 -9.425,9.742 -4.133,2.609 -9.575,3.918 -16.321,3.918 -9.383,0 -16.867,-3.969 -22.445,-11.91 -5.582,-7.942 -8.371,-22.43 -8.371,-43.488 v -11.34 c 0,-16.821 2.203,-28.6409 6.613,-35.4925 4.406,-6.8476 11.254,-10.2695 20.539,-10.2695 6.285,0 12.125,1.7109 17.524,5.1289 5.386,3.4102 9.351,7.5625 11.886,12.4414"
       style="fill:#231f20;fill-opacity:1;fill-rule:nonzero;stroke:none"
       transform="matrix(0.13333333,0,0,-0.13333333,0,455.77333)" />
    <path
       id="path173"
       d="M 517.699,52.5 H 474.23 l -0.906,25.3711 c -5.293,-7.1914 -12.562,-13.793 -21.82,-19.8008 -9.258,-6 -20.684,-9.0117 -34.281,-9.0117 -12.754,0 -22.789,3.832 -30.11,11.5117 -7.316,7.668 -10.976,21.3203 -10.976,40.9297 v 114.441 h 45.312 V 105.398 c 0,-8.5464 1.793,-14.2886 5.375,-17.2378 3.586,-2.9493 7.973,-4.4102 13.16,-4.4102 6.602,0 12.688,1.2109 18.254,3.6484 5.567,2.4414 10.282,6.2305 14.149,11.4102 V 215.941 h 45.312 V 52.5"
       style="fill:#231f20;fill-opacity:1;fill-rule:nonzero;stroke:none"
       transform="matrix(0.13333333,0,0,-0.13333333,0,455.77333)" />
    <path
       id="path174"
       d="m 683.57,61.25 c -1.797,-1.5117 -7.144,-3.9297 -16.043,-7.2305 -8.894,-3.3007 -18.172,-4.9609 -27.82,-4.9609 -26.406,0 -47.41,6.8398 -63.027,20.5 -15.617,13.6602 -23.422,34.1604 -23.422,61.4924 v 6.961 c 0,24.758 7.66,44.629 22.992,59.566 15.332,14.942 36.055,22.422 62.18,22.422 10.308,0 19.633,-1.328 27.961,-3.988 8.332,-2.641 14.054,-5.481 17.179,-8.512 v -28.75 c -4.062,3.711 -9.472,6.82 -16.23,9.332 -6.758,2.52 -14.11,3.789 -22.043,3.789 -13.797,0 -24.356,-4.941 -31.68,-14.832 -7.324,-9.891 -10.984,-23.449 -10.984,-40.66 v -2.981 c 0,-19.308 2.972,-32.976 8.93,-41.0191 5.953,-8.0469 15.542,-12.0703 28.773,-12.0703 8.883,0 17.531,1.3516 25.937,4.043 8.411,2.6875 14.176,5.3984 17.297,8.1484 V 61.25"
       style="fill:#231f20;fill-opacity:1;fill-rule:nonzero;stroke:none"
       transform="matrix(0.13333333,0,0,-0.13333333,0,455.77333)" />
    <path
       id="path175"
       d="m 854.703,52.5 h -42.305 l -0.82,21.3984 c -3.504,-6.8086 -9.367,-12.3984 -17.59,-16.75 -8.222,-4.3593 -17.816,-6.5273 -28.785,-6.5273 -18.055,0 -31.719,4.5391 -40.98,13.6172 -9.266,9.0625 -13.895,22.8125 -13.895,41.2497 v 2.832 c 0,18.239 6.188,32.301 18.563,42.18 12.379,9.871 29.007,14.809 49.886,14.809 6.328,0 12.567,-0.93 18.707,-2.77 6.145,-1.859 10.629,-4.16 13.469,-6.918 v 16.141 c 0,5.597 -2.555,10.359 -7.656,14.25 -5.109,3.91 -12.34,5.859 -21.695,5.859 -10.02,0 -18.957,-1.109 -26.797,-3.32 -7.848,-2.199 -14.653,-4.949 -20.414,-8.242 v 27.812 c 7.461,2.988 15.8,5.57 25.007,7.719 9.211,2.148 20.383,3.219 33.516,3.219 21.066,0 36.633,-4.75 46.695,-14.258 10.059,-9.512 15.094,-24.711 15.094,-45.61 z m -43.437,54.789 v 4.402 c 0,9.821 -2.313,17.309 -6.93,22.457 -4.617,5.153 -11.453,7.723 -20.504,7.723 -8.484,0 -15.199,-2.441 -20.144,-7.301 -4.954,-4.859 -7.422,-12.59 -7.422,-23.172 v -4.386 c 0,-11.0511 2.613,-18.43 7.843,-22.1136 5.231,-3.6875 11.903,-5.5273 20.008,-5.5273 6.973,0 13.242,2.25 18.805,6.7305 5.558,4.4804 8.344,11.5586 8.344,21.1874"
       style="fill:#231f20;fill-opacity:1;fill-rule:nonzero;stroke:none"
       transform="matrix(0.13333333,0,0,-0.13333333,0,455.77333)" />
    <path
       id="path176"
       d="m 986.711,187.809 h -43.125 v -83.981 c 0,-8.5389 1.414,-14.8085 4.258,-18.7889 2.836,-3.9883 8.324,-5.9805 16.465,-5.9805 3.875,0 7.617,0.293 11.214,0.8828 3.594,0.5899 6.911,1.3399 9.938,2.25 V 56.8711 c -4.832,-2.0313 -10.773,-3.5195 -17.824,-4.4922 -7.051,-0.957 -13.985,-1.4375 -20.801,-1.4375 -14.961,0 -26.793,4.8086 -35.504,14.4375 -8.711,9.6328 -13.062,23.4609 -13.062,41.4801 v 81.262 h -19.375 v 22.82 l 20.941,1.25 15.309,54.368 h 28.441 V 212.5 h 43.125 v -24.691"
       style="fill:#231f20;fill-opacity:1;fill-rule:nonzero;stroke:none"
       transform="matrix(0.13333333,0,0,-0.13333333,0,455.77333)" />
    <path
       id="path177"
       d="m 1062.07,252.172 c 0,-6.793 -2.32,-12.5 -6.97,-17.113 -4.65,-4.629 -10.3,-6.938 -16.94,-6.938 -6.54,0 -12.16,2.309 -16.86,6.938 -4.7,4.613 -7.04,10.32 -7.04,17.113 0,6.598 2.34,12.207 7.04,16.828 4.7,4.621 10.32,6.941 16.86,6.941 6.64,0 12.29,-2.32 16.94,-6.941 4.65,-4.621 6.97,-10.23 6.97,-16.828 z M 1060.82,52.5 h -45.31 v 163.441 h 45.31 V 52.5"
       style="fill:#231f20;fill-opacity:1;fill-rule:nonzero;stroke:none"
       transform="matrix(0.13333333,0,0,-0.13333333,0,455.77333)" />
    <path
       id="path178"
       d="m 1259.61,129.352 c 0,-25.25 -7.26,-44.9536 -21.76,-59.0825 -14.52,-14.1406 -34.43,-21.2109 -59.76,-21.2109 -25.15,0 -45.14,7.2305 -59.97,21.7031 -14.84,14.4688 -22.26,34.0003 -22.26,58.5903 v 10.359 c 0,24.019 7.32,43.391 21.97,58.16 14.65,14.75 34.64,22.129 59.97,22.129 25.52,0 45.53,-7.422 60.05,-22.281 14.5,-14.848 21.76,-34.188 21.76,-58.008 z m -46.56,3.968 v 2.418 c 0,21.992 -3.41,37.004 -10.21,45.032 -6.8,8.031 -15.11,12.039 -24.93,12.039 -10.3,0 -18.69,-4.297 -25.16,-12.887 -6.47,-8.594 -9.7,-23.32 -9.7,-44.184 v -2.418 c 0,-22.941 3.14,-38.1794 9.42,-45.7419 6.28,-7.5586 14.76,-11.3281 25.44,-11.3281 9.63,0 17.9,3.6797 24.79,11.0391 6.89,7.3711 10.35,22.7109 10.35,46.0309"
       style="fill:#231f20;fill-opacity:1;fill-rule:nonzero;stroke:none"
       transform="matrix(0.13333333,0,0,-0.13333333,0,455.77333)" />
    <path
       id="path179"
       d="m 1437.38,52.5 h -45.31 v 114.43 c 0,4.261 -1.82,8.23 -5.45,11.922 -3.64,3.679 -8.85,5.519 -15.64,5.519 -6.51,0 -12.24,-1.359 -17.19,-4.101 -4.95,-2.731 -9.18,-6.211 -12.66,-10.45 V 52.5 h -45.31 v 163.441 h 43.6 l 0.85,-26.25 c 3.3,7.75 9.65,14.59 19.04,20.5 9.39,5.911 20.83,8.868 34.33,8.868 13.59,0 24.28,-4.278 32.06,-12.84 7.78,-8.559 11.68,-21.637 11.68,-39.231 V 52.5"
       style="fill:#231f20;fill-opacity:1;fill-rule:nonzero;stroke:none"
       transform="matrix(0.13333333,0,0,-0.13333333,0,455.77333)" />
    <path
       id="path180"
       d="m 1853.9,129.352 c 0,-25.25 -7.26,-44.9536 -21.77,-59.0825 -14.51,-14.1406 -34.42,-21.2109 -59.76,-21.2109 -25.14,0 -45.13,7.2305 -59.97,21.7031 -14.84,14.4688 -22.25,34.0003 -22.25,58.5903 v 10.359 c 0,24.019 7.32,43.391 21.97,58.16 14.65,14.75 34.64,22.129 59.97,22.129 25.52,0 45.53,-7.422 60.04,-22.281 14.51,-14.848 21.77,-34.188 21.77,-58.008 z m -46.57,3.968 v 2.418 c 0,21.992 -3.4,37.004 -10.2,45.032 -6.8,8.031 -15.11,12.039 -24.94,12.039 -10.3,0 -18.68,-4.297 -25.15,-12.887 -6.47,-8.594 -9.71,-23.32 -9.71,-44.184 v -2.418 c 0,-22.941 3.14,-38.1794 9.43,-45.7419 6.28,-7.5586 14.76,-11.3281 25.43,-11.3281 9.64,0 17.9,3.6797 24.8,11.0391 6.89,7.3711 10.34,22.7109 10.34,46.0309"
       style="fill:#231f20;fill-opacity:1;fill-rule:nonzero;stroke:none"
       transform="matrix(0.13333333,0,0,-0.13333333,0,455.77333)" />
    <path
       id="path181"
       d="m 2012.29,166.25 h -41.88 c 0,4.629 -0.97,8.59 -2.9,11.91 -1.92,3.301 -5.71,4.961 -11.35,4.961 -5.37,0 -9.89,-1.48 -13.55,-4.43 -3.67,-2.972 -6.07,-6.113 -7.2,-9.441 V 52.5 h -45.31 v 163.441 h 43.61 l 0.85,-25.972 c 4.24,9.269 9.74,16.429 16.49,21.492 6.75,5.059 14.7,7.598 23.86,7.598 13.68,0 23.9,-4.508 30.65,-13.508 6.75,-9.031 8.99,-22.121 6.73,-39.301"
       style="fill:#231f20;fill-opacity:1;fill-rule:nonzero;stroke:none"
       transform="matrix(0.13333333,0,0,-0.13333333,0,455.77333)" />
    <path
       id="path182"
       d="m 2181.47,74.8594 c 0,-23.3008 -7.53,-41.5977 -22.59,-54.8985 C 2143.82,6.66016 2123.13,0 2096.81,0 c -7.77,0 -16.79,0.789063 -27.06,2.35938 -10.27,1.58203 -19.39,4.33984 -27.34,8.26172 v 31.25 c 8.13,-3.6523 16.7,-6.1719 25.69,-7.5703 8.98,-1.4102 16.79,-2.1094 23.41,-2.1094 18.17,0 30.51,3.0977 37.04,9.2891 6.53,6.1992 9.79,14.3203 9.79,24.3515 v 16.0391 c -2.55,-5.6992 -7.9,-11.7109 -16.04,-18.0195 -8.14,-6.3203 -19.97,-9.4805 -35.49,-9.4805 -17.61,0 -31.81,6.0586 -42.6,18.1797 -10.79,12.1211 -16.18,32.2302 -16.18,60.3402 v 4.687 c 0,26.981 6.15,47.102 18.47,60.352 12.31,13.25 29.35,19.879 51.14,19.879 8.52,0 16.47,-1.348 23.86,-4.039 7.38,-2.7 13.21,-6.739 17.47,-12.129 v 14.3 h 42.5 z m -45.63,62.9106 v 10.242 c 0,16.289 -2.3,27.789 -6.9,34.468 -4.61,6.68 -12.04,10.02 -22.28,10.02 -9.78,0 -17.46,-3.891 -23.05,-11.66 -5.6,-7.77 -8.39,-20.668 -8.39,-38.66 v -4.41 c 0,-20.559 2.56,-34.45 7.68,-41.6606 5.12,-7.211 12.67,-10.8008 22.63,-10.8008 9.87,0 17.39,3.9922 22.56,11.9297 5.17,7.9727 7.75,21.4727 7.75,40.5317"
       style="fill:#231f20;fill-opacity:1;fill-rule:nonzero;stroke:none"
       transform="matrix(0.13333333,0,0,-0.13333333,0,455.77333)" />
    <path
       id="path183"
       d="m 2359.72,52.5 h -42.3 l -0.82,21.3984 c -3.5,-6.8086 -9.37,-12.3984 -17.59,-16.75 -8.22,-4.3593 -17.82,-6.5273 -28.79,-6.5273 -18.05,0 -31.71,4.5391 -40.98,13.6172 -9.26,9.0625 -13.89,22.8125 -13.89,41.2497 v 2.832 c 0,18.239 6.18,32.301 18.56,42.18 12.38,9.871 29.01,14.809 49.89,14.809 6.33,0 12.56,-0.93 18.7,-2.77 6.15,-1.859 10.63,-4.16 13.47,-6.918 v 16.141 c 0,5.597 -2.55,10.359 -7.65,14.25 -5.11,3.91 -12.34,5.859 -21.7,5.859 -10.02,0 -18.95,-1.109 -26.8,-3.32 -7.84,-2.199 -14.65,-4.949 -20.41,-8.242 v 27.812 c 7.46,2.988 15.8,5.57 25.01,7.719 9.21,2.148 20.38,3.219 33.51,3.219 21.07,0 36.64,-4.75 46.7,-14.258 10.06,-9.512 15.09,-24.711 15.09,-45.61 z m -43.44,54.789 v 4.402 c 0,9.821 -2.31,17.309 -6.92,22.457 -4.62,5.153 -11.46,7.723 -20.51,7.723 -8.48,0 -15.2,-2.441 -20.14,-7.301 -4.96,-4.859 -7.43,-12.59 -7.43,-23.172 v -4.386 c 0,-11.0511 2.62,-18.43 7.85,-22.1136 5.23,-3.6875 11.9,-5.5273 20.01,-5.5273 6.97,0 13.24,2.25 18.8,6.7305 5.56,4.4804 8.34,11.5586 8.34,21.1874"
       style="fill:#231f20;fill-opacity:1;fill-rule:nonzero;stroke:none"
       transform="matrix(0.13333333,0,0,-0.13333333,0,455.77333)" />
    <path
       id="path184"
       d="m 2542.04,52.5 h -45.31 v 114.43 c 0,4.261 -1.82,8.23 -5.45,11.922 -3.63,3.679 -8.84,5.519 -15.64,5.519 -6.5,0 -12.24,-1.359 -17.19,-4.101 -4.95,-2.731 -9.17,-6.211 -12.66,-10.45 V 52.5 h -45.31 v 163.441 h 43.61 l 0.85,-26.25 c 3.3,7.75 9.64,14.59 19.03,20.5 9.39,5.911 20.83,8.868 34.33,8.868 13.59,0 24.28,-4.278 32.06,-12.84 7.78,-8.559 11.68,-21.637 11.68,-39.231 V 52.5"
       style="fill:#231f20;fill-opacity:1;fill-rule:nonzero;stroke:none"
       transform="matrix(0.13333333,0,0,-0.13333333,0,455.77333)" />
    <path
       id="path185"
       d="m 2630.41,252.172 c 0,-6.793 -2.33,-12.5 -6.98,-17.113 -4.65,-4.629 -10.29,-6.938 -16.93,-6.938 -6.54,0 -12.16,2.309 -16.86,6.938 -4.7,4.613 -7.04,10.32 -7.04,17.113 0,6.598 2.34,12.207 7.04,16.828 4.7,4.621 10.32,6.941 16.86,6.941 6.64,0 12.28,-2.32 16.93,-6.941 4.65,-4.621 6.98,-10.23 6.98,-16.828 z M 2629.16,52.5 h -45.31 v 163.441 h 45.31 V 52.5"
       style="fill:#231f20;fill-opacity:1;fill-rule:nonzero;stroke:none"
       transform="matrix(0.13333333,0,0,-0.13333333,0,455.77333)" />
    <path
       id="path186"
       d="m 2791.38,52.5 h -135.62 v 30.1914 l 83.13,104.1796 h -81.57 v 29.07 h 130.31 V 185.738 L 2701.94,81.5586 h 89.44 V 52.5"
       style="fill:#231f20;fill-opacity:1;fill-rule:nonzero;stroke:none"
       transform="matrix(0.13333333,0,0,-0.13333333,0,455.77333)" />
    <path
       id="path187"
       d="m 2950.88,52.5 h -42.3 l -0.82,21.3984 c -3.51,-6.8086 -9.37,-12.3984 -17.59,-16.75 -8.22,-4.3593 -17.82,-6.5273 -28.79,-6.5273 -18.05,0 -31.72,4.5391 -40.97,13.6172 -9.27,9.0625 -13.9,22.8125 -13.9,41.2497 v 2.832 c 0,18.239 6.18,32.301 18.56,42.18 12.38,9.871 29.01,14.809 49.89,14.809 6.32,0 12.56,-0.93 18.71,-2.77 6.14,-1.859 10.62,-4.16 13.46,-6.918 v 16.141 c 0,5.597 -2.55,10.359 -7.65,14.25 -5.11,3.91 -12.35,5.859 -21.7,5.859 -10.02,0 -18.96,-1.109 -26.8,-3.32 -7.84,-2.199 -14.65,-4.949 -20.41,-8.242 v 27.812 c 7.46,2.988 15.8,5.57 25.01,7.719 9.21,2.148 20.38,3.219 33.52,3.219 21.06,0 36.63,-4.75 46.69,-14.258 10.05,-9.512 15.09,-24.711 15.09,-45.61 z m -43.43,54.789 v 4.402 c 0,9.821 -2.32,17.309 -6.94,22.457 -4.62,5.153 -11.45,7.723 -20.5,7.723 -8.48,0 -15.2,-2.441 -20.14,-7.301 -4.95,-4.859 -7.42,-12.59 -7.42,-23.172 v -4.386 c 0,-11.0511 2.6,-18.43 7.84,-22.1136 5.23,-3.6875 11.9,-5.5273 20.01,-5.5273 6.97,0 13.24,2.25 18.8,6.7305 5.56,4.4804 8.35,11.5586 8.35,21.1874"
       style="fill:#231f20;fill-opacity:1;fill-rule:nonzero;stroke:none"
       transform="matrix(0.13333333,0,0,-0.13333333,0,455.77333)" />
    <path
       id="path188"
       d="m 3082.89,187.809 h -43.13 v -83.981 c 0,-8.5389 1.42,-14.8085 4.26,-18.7889 2.84,-3.9883 8.33,-5.9805 16.46,-5.9805 3.88,0 7.62,0.293 11.22,0.8828 3.6,0.5899 6.91,1.3399 9.94,2.25 V 56.8711 c -4.83,-2.0313 -10.78,-3.5195 -17.83,-4.4922 -7.05,-0.957 -13.98,-1.4375 -20.8,-1.4375 -14.96,0 -26.78,4.8086 -35.5,14.4375 -8.71,9.6328 -13.06,23.4609 -13.06,41.4801 v 81.262 h -19.38 v 22.82 l 20.94,1.25 15.31,54.368 h 28.44 V 212.5 h 43.13 v -24.691"
       style="fill:#231f20;fill-opacity:1;fill-rule:nonzero;stroke:none"
       transform="matrix(0.13333333,0,0,-0.13333333,0,455.77333)" />
    <path
       id="path189"
       d="m 3158.25,252.172 c 0,-6.793 -2.33,-12.5 -6.98,-17.113 -4.64,-4.629 -10.29,-6.938 -16.93,-6.938 -6.54,0 -12.17,2.309 -16.86,6.938 -4.7,4.613 -7.05,10.32 -7.05,17.113 0,6.598 2.35,12.207 7.05,16.828 4.69,4.621 10.32,6.941 16.86,6.941 6.64,0 12.29,-2.32 16.93,-6.941 4.65,-4.621 6.98,-10.23 6.98,-16.828 z M 3157,52.5 h -45.32 V 215.941 H 3157 V 52.5"
       style="fill:#231f20;fill-opacity:1;fill-rule:nonzero;stroke:none"
       transform="matrix(0.13333333,0,0,-0.13333333,0,455.77333)" />
    <path
       id="path190"
       d="m 3355.79,129.352 c 0,-25.25 -7.26,-44.9536 -21.76,-59.0825 -14.51,-14.1406 -34.44,-21.2109 -59.77,-21.2109 -25.13,0 -45.12,7.2305 -59.97,21.7031 -14.83,14.4688 -22.25,34.0003 -22.25,58.5903 v 10.359 c 0,24.019 7.32,43.391 21.97,58.16 14.65,14.75 34.64,22.129 59.97,22.129 25.52,0 45.54,-7.422 60.05,-22.281 14.5,-14.848 21.76,-34.188 21.76,-58.008 z m -46.57,3.968 v 2.418 c 0,21.992 -3.39,37.004 -10.2,45.032 -6.8,8.031 -15.11,12.039 -24.93,12.039 -10.31,0 -18.68,-4.297 -25.16,-12.887 -6.47,-8.594 -9.71,-23.32 -9.71,-44.184 v -2.418 c 0,-22.941 3.15,-38.1794 9.43,-45.7419 6.28,-7.5586 14.76,-11.3281 25.44,-11.3281 9.63,0 17.9,3.6797 24.79,11.0391 6.9,7.3711 10.34,22.7109 10.34,46.0309"
       style="fill:#231f20;fill-opacity:1;fill-rule:nonzero;stroke:none"
       transform="matrix(0.13333333,0,0,-0.13333333,0,455.77333)" />
    <path
       id="path191"
       d="m 3533.55,52.5 h -45.31 v 114.43 c 0,4.261 -1.82,8.23 -5.45,11.922 -3.63,3.679 -8.84,5.519 -15.64,5.519 -6.5,0 -12.23,-1.359 -17.18,-4.101 -4.96,-2.731 -9.18,-6.211 -12.67,-10.45 V 52.5 h -45.31 v 163.441 h 43.61 l 0.85,-26.25 c 3.3,7.75 9.65,14.59 19.03,20.5 9.4,5.911 20.83,8.868 34.33,8.868 13.59,0 24.28,-4.278 32.06,-12.84 7.78,-8.559 11.68,-21.637 11.68,-39.231 V 52.5"
       style="fill:#231f20;fill-opacity:1;fill-rule:nonzero;stroke:none"
       transform="matrix(0.13333333,0,0,-0.13333333,0,455.77333)" />
    <path
       id="path192"
       d="m 3915.39,166.25 h -41.88 c 0,4.629 -0.97,8.59 -2.9,11.91 -1.92,3.301 -5.71,4.961 -11.36,4.961 -5.36,0 -9.88,-1.48 -13.54,-4.43 -3.67,-2.972 -6.08,-6.113 -7.2,-9.441 V 52.5 h -45.31 v 163.441 h 43.6 l 0.85,-25.972 c 4.25,9.269 9.75,16.429 16.5,21.492 6.74,5.059 14.7,7.598 23.86,7.598 13.68,0 23.9,-4.508 30.65,-13.508 6.75,-9.031 8.99,-22.121 6.73,-39.301"
       style="fill:#231f20;fill-opacity:1;fill-rule:nonzero;stroke:none"
       transform="matrix(0.13333333,0,0,-0.13333333,0,455.77333)" />
    <path
       id="path193"
       d="m 4087.69,125.621 h -110.94 c 0,-18.242 4.12,-30.9296 12.36,-38.0624 8.23,-7.1289 18.92,-10.6875 32.08,-10.6875 8.71,0 17.62,1.1172 26.75,3.3594 9.14,2.2383 18.53,5.6015 28.19,10.0781 V 63.1211 c -8.32,-4.6328 -17.52,-8.1406 -27.6,-10.5 -10.07,-2.3711 -21.68,-3.5625 -34.82,-3.5625 -25.17,0 -45.22,6.6914 -60.16,20.0703 -14.95,13.3828 -22.42,32.9411 -22.42,58.6601 v 11.633 c 0,22.508 6.83,41.566 20.5,57.168 13.66,15.609 33.48,23.41 59.49,23.41 24.76,0 43.72,-7.328 56.86,-21.969 13.14,-14.64 19.71,-33.722 19.71,-57.25 0,-8.961 0,-14.019 0,-15.16 z m -42.19,23.129 c -0.94,16.082 -4.46,27.609 -10.55,34.57 -6.1,6.95 -14.07,10.43 -23.89,10.43 -8.6,0 -16.28,-3.441 -23.04,-10.289 -6.76,-6.871 -10.42,-18.441 -10.98,-34.711 h 68.46"
       style="fill:#231f20;fill-opacity:1;fill-rule:nonzero;stroke:none"
       transform="matrix(0.13333333,0,0,-0.13333333,0,455.77333)" />
    <path
       id="path194"
       d="m 4226.12,102.25 c 0,-15.1211 -5.48,-27.7812 -16.43,-37.9297 -10.95,-10.1797 -28.98,-15.2617 -54.09,-15.2617 -10.48,0 -20.02,0.8828 -28.6,2.6211 -8.6,1.75 -14.83,3.8906 -18.69,6.4414 v 28.75 c 4.43,-2.5391 10.71,-5.0898 18.83,-7.6797 8.13,-2.5898 16.44,-3.8828 24.94,-3.8828 10.86,0 19.19,1.8398 25,5.5312 5.82,3.6915 8.73,8.4219 8.73,14.1797 0,5.5825 -1.95,10.1215 -5.82,13.6215 -3.88,3.5 -13.76,7.668 -29.65,12.488 -14.95,4.441 -25.12,10.723 -30.51,18.859 -5.39,8.133 -8.09,18.633 -8.09,31.492 0,13.149 4.83,24.258 14.48,33.34 9.64,9.078 24.87,13.621 45.68,13.621 9.65,0 17.8,-0.73 24.47,-2.191 6.67,-1.449 12.94,-3.539 18.81,-6.25 v -26.559 c -4.27,2.481 -10.32,4.571 -18.18,6.239 -7.86,1.672 -15.39,2.511 -22.59,2.511 -8.33,0 -15.08,-1.429 -20.24,-4.293 -5.16,-2.859 -7.74,-6.726 -7.74,-11.589 0,-5.59 1.98,-9.489 5.95,-11.7 3.97,-2.23 12.86,-5.371 26.66,-9.437 17.58,-5.211 29.82,-12.012 36.73,-20.434 6.89,-8.41 10.35,-19.238 10.35,-32.488"
       style="fill:#231f20;fill-opacity:1;fill-rule:nonzero;stroke:none"
       transform="matrix(0.13333333,0,0,-0.13333333,0,455.77333)" />
    <path
       id="path195"
       d="m 4405,125.621 h -110.94 c 0,-18.242 4.12,-30.9296 12.34,-38.0624 8.24,-7.1289 18.94,-10.6875 32.09,-10.6875 8.71,0 17.63,1.1172 26.76,3.3594 9.13,2.2383 18.52,5.6015 28.18,10.0781 V 63.1211 c -8.32,-4.6328 -17.52,-8.1406 -27.6,-10.5 -10.07,-2.3711 -21.67,-3.5625 -34.82,-3.5625 -25.17,0 -45.21,6.6914 -60.16,20.0703 -14.95,13.3828 -22.42,32.9411 -22.42,58.6601 v 11.633 c 0,22.508 6.84,41.566 20.49,57.168 13.67,15.609 33.5,23.41 59.49,23.41 24.77,0 43.73,-7.328 56.88,-21.969 13.13,-14.64 19.71,-33.722 19.71,-57.25 0,-8.961 0,-14.019 0,-15.16 z m -42.19,23.129 c -0.95,16.082 -4.48,27.609 -10.57,34.57 -6.09,6.95 -14.05,10.43 -23.89,10.43 -8.59,0 -16.27,-3.441 -23.02,-10.289 -6.76,-6.871 -10.42,-18.441 -10.99,-34.711 h 68.47"
       style="fill:#231f20;fill-opacity:1;fill-rule:nonzero;stroke:none"
       transform="matrix(0.13333333,0,0,-0.13333333,0,455.77333)" />
    <path
       id="path196"
       d="m 4575.3,52.5 h -42.31 l -0.82,21.3984 c -3.5,-6.8086 -9.36,-12.3984 -17.59,-16.75 -8.22,-4.3593 -17.82,-6.5273 -28.78,-6.5273 -18.06,0 -31.72,4.5391 -40.98,13.6172 -9.27,9.0625 -13.9,22.8125 -13.9,41.2497 v 2.832 c 0,18.239 6.18,32.301 18.57,42.18 12.37,9.871 29,14.809 49.88,14.809 6.33,0 12.57,-0.93 18.71,-2.77 6.14,-1.859 10.63,-4.16 13.47,-6.918 v 16.141 c 0,5.597 -2.56,10.359 -7.66,14.25 -5.11,3.91 -12.34,5.859 -21.7,5.859 -10.02,0 -18.95,-1.109 -26.79,-3.32 -7.85,-2.199 -14.65,-4.949 -20.41,-8.242 v 27.812 c 7.46,2.988 15.8,5.57 25.01,7.719 9.2,2.148 20.38,3.219 33.51,3.219 21.07,0 36.63,-4.75 46.69,-14.258 10.06,-9.512 15.1,-24.711 15.1,-45.61 z m -43.44,54.789 v 4.402 c 0,9.821 -2.31,17.309 -6.93,22.457 -4.62,5.153 -11.46,7.723 -20.5,7.723 -8.49,0 -15.21,-2.441 -20.15,-7.301 -4.95,-4.859 -7.42,-12.59 -7.42,-23.172 v -4.386 c 0,-11.0511 2.61,-18.43 7.84,-22.1136 5.24,-3.6875 11.91,-5.5273 20.01,-5.5273 6.97,0 13.24,2.25 18.8,6.7305 5.57,4.4804 8.35,11.5586 8.35,21.1874"
       style="fill:#231f20;fill-opacity:1;fill-rule:nonzero;stroke:none"
       transform="matrix(0.13333333,0,0,-0.13333333,0,455.77333)" />
    <path
       id="path197"
       d="m 4738.24,166.25 h -41.88 c 0,4.629 -0.96,8.59 -2.89,11.91 -1.93,3.301 -5.71,4.961 -11.36,4.961 -5.37,0 -9.88,-1.48 -13.55,-4.43 -3.67,-2.972 -6.06,-6.113 -7.2,-9.441 V 52.5 h -45.31 v 163.441 h 43.61 l 0.85,-25.972 c 4.25,9.269 9.75,16.429 16.5,21.492 6.74,5.059 14.69,7.598 23.85,7.598 13.69,0 23.91,-4.508 30.66,-13.508 6.75,-9.031 8.98,-22.121 6.72,-39.301"
       style="fill:#231f20;fill-opacity:1;fill-rule:nonzero;stroke:none"
       transform="matrix(0.13333333,0,0,-0.13333333,0,455.77333)" />
    <path
       id="path198"
       d="m 4884.3,61.25 c -1.8,-1.5117 -7.15,-3.9297 -16.04,-7.2305 -8.9,-3.3007 -18.18,-4.9609 -27.83,-4.9609 -26.4,0 -47.41,6.8398 -63.02,20.5 -15.62,13.6602 -23.42,34.1604 -23.42,61.4924 v 6.961 c 0,24.758 7.66,44.629 22.99,59.566 15.33,14.942 36.05,22.422 62.18,22.422 10.31,0 19.63,-1.328 27.96,-3.988 8.33,-2.641 14.06,-5.481 17.18,-8.512 v -28.75 c -4.06,3.711 -9.47,6.82 -16.23,9.332 -6.76,2.52 -14.11,3.789 -22.04,3.789 -13.8,0 -24.36,-4.941 -31.68,-14.832 -7.32,-9.891 -10.99,-23.449 -10.99,-40.66 v -2.981 c 0,-19.308 2.97,-32.976 8.93,-41.0191 5.96,-8.0469 15.55,-12.0703 28.78,-12.0703 8.88,0 17.53,1.3516 25.94,4.043 8.41,2.6875 14.17,5.3984 17.29,8.1484 V 61.25"
       style="fill:#231f20;fill-opacity:1;fill-rule:nonzero;stroke:none"
       transform="matrix(0.13333333,0,0,-0.13333333,0,455.77333)" />
    <path
       id="path199"
       d="m 5062,52.5 h -45.32 v 114.43 c 0,5.011 -1.49,9.16 -4.46,12.48 -2.97,3.301 -7.66,4.961 -14.07,4.961 -6.51,0 -12.63,-1.32 -18.33,-3.961 -5.7,-2.64 -10.4,-6.172 -14.07,-10.601 V 52.5 h -45.32 v 214.059 h 45.32 V 190.82 c 5,7.192 12.05,13.692 21.15,19.508 9.11,5.82 20.51,8.731 34.19,8.731 13.58,0 23.8,-4.278 30.64,-12.84 6.84,-8.559 10.27,-21.637 10.27,-39.231 L 5062,52.5"
       style="fill:#231f20;fill-opacity:1;fill-rule:nonzero;stroke:none"
       transform="matrix(0.13333333,0,0,-0.13333333,0,455.77333)" />
  </g>
</svg>
